SplineFontDB: 3.2
FontName: CothamSans
FullName: Cotham Sans
FamilyName: Cotham Sans
Weight: Regular
Copyright: SIL Open Font License (OFL)
UComments: "-harmonize width especialy the counters like b,d,h,m,n,o,p+AAoA--maybe shorten the serifs"
Version: 1.0
StyleMapFamilyName: Cotham Sans
FONDName: Cotham Sans
ItalicAngle: 0
UnderlinePosition: -100
UnderlineWidth: 50
Ascent: 750
Descent: 250
InvalidEm: 0
UFOAscent: 750
UFODescent: -250
LayerCount: 2
Layer: 0 0 "Arri+AOgA-re" 1
Layer: 1 0 "Avant" 0
PreferredKerning: 1
StyleMap: 0x0040
FSType: 4
OS2Version: 0
OS2_WeightWidthSlopeOnly: 0
OS2_UseTypoMetrics: 0
CreationTime: 1724164833
ModificationTime: 1724176215
PfmFamily: 16
TTFWeight: 400
TTFWidth: 5
LineGap: 9
VLineGap: 0
Panose: 2 0 0 0 0 0 0 0 0 0
OS2TypoAscent: 750
OS2TypoAOffset: 0
OS2TypoDescent: -250
OS2TypoDOffset: 0
OS2TypoLinegap: 0
OS2WinAscent: 0
OS2WinAOffset: 0
OS2WinDescent: 0
OS2WinDOffset: 0
HheadAscent: 750
HheadAOffset: 0
HheadDescent: -250
HheadDOffset: 0
OS2SubXSize: 700
OS2SubYSize: 650
OS2SubXOff: 0
OS2SubYOff: 140
OS2SupXSize: 700
OS2SupYSize: 650
OS2SupXOff: 0
OS2SupYOff: 477
OS2StrikeYSize: 50
OS2StrikeYPos: 250
OS2CapHeight: 740
OS2XHeight: 470
OS2Vendor: 'pyrs'
OS2CodePages: 00000000.00000000
OS2UnicodeRanges: 00000000.00000000.00000000.00000000
Lookup: 258 0 0 "'kern' Horizontal Kerning lookup 0" { "'kern' Horizontal Kerning lookup 0 subtable"  } ['kern' ('DFLT' <'dflt' > ) ]
DEI: 91125
Group: "._A" ""
Group: "._C" ""
Group: "._E" ""
Group: "._Hleft" "N M B E F L K D R P I"
Group: "._Hriht" "M N I"
Group: "._I" ""
Group: "._N" ""
Group: "._O" ""
Group: "._Oleft" "C Q G"
Group: "._Oright" "D Q"
Group: "._S" ""
Group: "._U" ""
Group: "._Y" ""
Group: "._Z" ""
Group: "._a" ""
Group: "._c" ""
Group: "._e" ""
Group: "._hLeft" "k l"
Group: "._i" ""
Group: "._n" ""
Group: "._nLeft" "m r f i"
Group: "._nRight" "m h"
Group: "._o" ""
Group: "._oLeft" "e c d q"
Group: "._oRight" "b p"
Group: "._s" ""
Group: "._u" ""
Group: "._y" ""
Group: "._z" ""

StartChar: A
Encoding: 65 65 0
GlifName: A_
Width: 683
VWidth: 0
Flags: W
LayerCount: 2
Fore
SplineSet
24 0 m 257
 119 0 l 257
 193 211 279 446 353 658 c 257
 353 740 l 257
 296 740 l 257
 24 0 l 257
183 225 m 257
 515 225 l 257
 515 297 l 257
 183 297 l 257
 183 225 l 257
397 740 m 257
 342 740 l 257
 342 659 l 257
 416 446 504 213 577 0 c 257
 671 0 l 257
 397 740 l 257
EndSplineSet
Validated: 5
EndChar

StartChar: B
Encoding: 66 66 1
GlifName: B_
Width: 623
VWidth: 0
Flags: W
LayerCount: 2
Fore
SplineSet
130 740 m 257
 314 740 l 257
 405 740 465 730 510 692 c 256
 544 664 574 612 574 547 c 256
 574 406 422 359 273 359 c 257
 128 359 l 257
 128 410 l 257
 284 410 l 257
 392 410 474 445 474 536 c 256
 474 637 400 665 314 665 c 257
 130 665 l 257
 130 740 l 257
151 389 m 257
 306 389 l 257
 465 388 595 353 595 198 c 256
 595 106 561 63 509 32 c 256
 456 0 378 0 304 0 c 257
 149 0 l 257
 149 77 l 257
 316 77 l 257
 424 77 494 97 494 198 c 256
 494 237 475 277 447 298 c 256
 415 322 371 331 306 331 c 257
 151 331 l 257
 151 389 l 257
67 740 m 257
 160 740 l 257
 160 0 l 257
 67 0 l 257
 67 740 l 257
EndSplineSet
Validated: 5
EndChar

StartChar: C
Encoding: 67 67 2
GlifName: C_
Width: 772
VWidth: 0
Flags: W
LayerCount: 2
Fore
SplineSet
735 258 m 257
 730 175 691 106 634 61 c 256
 574 13 492 -11 411 -11 c 256
 184 -11 56 138 56 360 c 256
 56 589 202 750 420 750 c 256
 512 750 595 720 649 669 c 256
 696 625 724 560 726 481 c 257
 710 480 694 477 678 476 c 256
 674 476 670 475 666 475 c 257
 629 471 l 257
 625 598 530 673 418 673 c 256
 256 673 159 542 159 370 c 256
 159 188 258 71 418 71 c 256
 538 71 628 136 638 269 c 257
 735 258 l 257
EndSplineSet
Validated: 1
EndChar

StartChar: D
Encoding: 68 68 3
GlifName: D_
Width: 687
VWidth: 0
Flags: W
LayerCount: 2
Fore
SplineSet
116 78 m 257
 268 78 l 257
 352 78 406 97 448 126 c 257
 512 177 550 269 550 370 c 256
 550 471 512 563 448 614 c 257
 406 643 352 662 268 662 c 257
 116 662 l 257
 116 740 l 257
 293 740 l 257
 355 740 438 721 491 691 c 257
 579 627 644 503 644 370 c 256
 644 237 579 113 491 49 c 257
 438 19 355 0 293 0 c 257
 116 0 l 257
 116 78 l 257
67 740 m 257
 159 740 l 257
 159 0 l 257
 67 0 l 257
 67 740 l 257
EndSplineSet
Validated: 5
EndChar

StartChar: E
Encoding: 69 69 5
GlifName: E_
Width: 575
VWidth: 0
Flags: W
LayerCount: 2
Fore
SplineSet
68 740 m 257
 554 740 l 257
 554 664 l 257
 68 664 l 257
 68 740 l 257
68 419 m 257
 478 419 l 257
 478 342 l 257
 68 342 l 257
 68 419 l 257
56 740 m 257
 148 740 l 257
 148 0 l 257
 56 0 l 257
 56 740 l 257
68 76 m 257
 554 76 l 257
 554 0 l 257
 68 0 l 257
 68 76 l 257
EndSplineSet
Validated: 5
EndChar

StartChar: F
Encoding: 70 70 6
GlifName: F_
Width: 586
VWidth: 0
Flags: W
LayerCount: 2
Fore
SplineSet
68 740 m 257
 554 740 l 257
 554 665 l 257
 68 665 l 257
 68 740 l 257
68 417 m 257
 478 417 l 257
 478 342 l 257
 68 342 l 257
 68 417 l 257
55 740 m 257
 147 740 l 257
 147 0 l 257
 55 0 l 257
 55 740 l 257
EndSplineSet
Validated: 5
EndChar

StartChar: G
Encoding: 71 71 7
GlifName: G_
Width: 820
VWidth: 0
Flags: W
LayerCount: 2
Fore
SplineSet
417 370 m 257
 747 370 l 257
 747 300 l 257
 417 300 l 257
 417 370 l 257
658 334 m 257
 747 334 l 257
 747 -7 l 257
 658 -7 l 257
 658 334 l 257
720 262 m 257
 704 177 673 104 615 58 c 256
 555 10 486 -11 405 -11 c 256
 189 -11 60 138 60 360 c 256
 60 589 206 750 414 750 c 256
 506 750 593 729 647 679 c 256
 696 634 718 584 731 509 c 257
 680 501 l 257
 661 498 646 495 628 493 c 257
 618 597 540 673 419 673 c 256
 246 673 166 542 166 370 c 256
 166 197 246 68 419 68 c 256
 552 68 642 160 658 279 c 257
 720 262 l 257
EndSplineSet
Validated: 5
EndChar

StartChar: H
Encoding: 72 72 8
GlifName: H_
Width: 729
VWidth: 0
Flags: W
LayerCount: 2
Fore
SplineSet
143 399 m 257
 634 399 l 257
 634 323 l 257
 143 323 l 257
 143 399 l 257
74 740 m 257
 166 740 l 257
 166 0 l 257
 74 0 l 257
 74 740 l 257
570 740 m 257
 662 740 l 257
 662 0 l 257
 570 0 l 257
 570 740 l 257
EndSplineSet
Validated: 5
EndChar

StartChar: I
Encoding: 73 73 9
GlifName: I_
Width: 322
VWidth: 0
Flags: W
LayerCount: 2
Fore
SplineSet
112 740 m 257
 204 740 l 257
 204 0 l 257
 112 0 l 257
 112 740 l 257
EndSplineSet
Validated: 1
EndChar

StartChar: J
Encoding: 74 74 10
GlifName: J_
Width: 348
VWidth: 0
Flags: W
LayerCount: 2
Fore
SplineSet
153 265 m 257
 153 195 147 144 129 117 c 257
 110 92 80 83 46 83 c 256
 37 83 27 84 17 85 c 257
 14 1 l 257
 17 1 l 257
 29 0 40 -1 52 -1 c 256
 117 -1 192 23 226 82 c 257
 244 125 246 200 246 269 c 257
 246 740 l 257
 153 740 l 257
 153 265 l 257
EndSplineSet
Validated: 9
EndChar

StartChar: K
Encoding: 75 75 11
GlifName: K_
Width: 712
VWidth: 0
Flags: W
LayerCount: 2
Fore
SplineSet
116 0 m 257
 207 0 l 257
 207 740 l 257
 116 740 l 257
 116 0 l 257
208 274 m 257
 645 740 l 257
 534 740 l 257
 209 394 l 257
 210 395 l 257
 208 274 l 257
234 373 m 257
 381 186 l 257
 431 122 481 58 528 0 c 257
 646 0 l 257
 531 148 416 291 301 438 c 257
 234 373 l 257
EndSplineSet
Validated: 5
EndChar

StartChar: L
Encoding: 76 76 12
GlifName: L_
Width: 579
VWidth: 0
Flags: W
LayerCount: 2
Fore
SplineSet
85 78 m 257
 570 78 l 257
 570 0 l 257
 85 0 l 257
 85 78 l 257
85 740 m 257
 177 740 l 257
 177 0 l 257
 85 0 l 257
 85 740 l 257
EndSplineSet
Validated: 5
EndChar

StartChar: M
Encoding: 77 77 13
GlifName: M_
Width: 901
VWidth: 0
Flags: W
LayerCount: 2
Fore
SplineSet
438 10 m 257
 438 88 l 257
 704 740 l 257
 793 740 l 257
 496 10 l 257
 438 10 l 257
81 740 m 257
 173 740 l 257
 173 0 l 257
 81 0 l 257
 81 740 l 257
743 740 m 257
 833 740 l 257
 833 0 l 257
 743 0 l 257
 743 740 l 257
418 10 m 257
 121 740 l 257
 212 740 l 257
 477 87 l 257
 477 10 l 257
 418 10 l 257
EndSplineSet
Validated: 5
EndChar

StartChar: N
Encoding: 78 78 14
GlifName: N_
Width: 780
VWidth: 0
Flags: W
LayerCount: 2
Fore
SplineSet
101 740 m 257
 193 740 l 257
 193 0 l 257
 101 0 l 257
 101 740 l 257
577 0 m 257
 161 658 l 257
 161 740 l 257
 213 740 l 257
 345 530 499 288 630 77 c 257
 630 0 l 257
 577 0 l 257
591 740 m 257
 683 740 l 257
 683 0 l 257
 591 0 l 257
 591 740 l 257
EndSplineSet
Validated: 5
EndChar

StartChar: O
Encoding: 79 79 15
GlifName: O_
Width: 810
VWidth: 0
Flags: W
LayerCount: 2
Fore
SplineSet
404 668 m 256
 584 668 679 545 679 371 c 256
 679 195 584 72 404 72 c 256
 230 72 137 195 137 371 c 256
 137 545 230 668 404 668 c 256
404 750 m 256
 179 750 37 591 37 371 c 256
 37 147 184 -10 404 -10 c 256
 625 -10 777 147 777 371 c 256
 777 591 631 750 404 750 c 256
EndSplineSet
Validated: 9
EndChar

StartChar: P
Encoding: 80 80 16
GlifName: P_
Width: 598
VWidth: 0
Flags: W
LayerCount: 2
Fore
SplineSet
63 740 m 257
 160 740 l 257
 160 0 l 257
 63 0 l 257
 63 740 l 257
150 740 m 257
 282 740 l 257
 447 740 569 687 569 516 c 256
 569 343 426 292 282 292 c 257
 148 292 l 257
 148 370 l 257
 282 370 l 257
 391 370 473 398 473 516 c 256
 473 629 406 662 282 662 c 257
 150 662 l 257
 150 740 l 257
EndSplineSet
Validated: 5
EndChar

StartChar: Q
Encoding: 81 81 17
GlifName: Q_
Width: 833
VWidth: 0
Flags: W
LayerCount: 2
Fore
SplineSet
393 668 m 256
 573 668 668 545 668 371 c 256
 668 195 573 72 393 72 c 256
 219 72 126 195 126 371 c 256
 126 545 219 668 393 668 c 256
393 750 m 256
 168 750 26 591 26 371 c 256
 26 147 173 -10 393 -10 c 256
 614 -10 766 147 766 371 c 256
 766 591 620 750 393 750 c 256
509 39 m 257
 525 -32 581 -82 647 -82 c 256
 659 -82 674 -81 687 -77 c 256
 723 -68 760 -38 773 -7 c 257
 719 30 l 257
 708 17 689 2 673 -2 c 256
 639 -10 602 11 589 58 c 257
 509 39 l 257
EndSplineSet
Validated: 37
EndChar

StartChar: R
Encoding: 82 82 18
GlifName: R_
Width: 634
VWidth: 0
Flags: W
LayerCount: 2
Fore
SplineSet
408 340 m 257
 463 314 490 276 542 120 c 256
 556 79 572 29 588 0 c 257
 483 0 l 257
 451 95 l 257
 425 173 393 284 333 326 c 257
 408 340 l 257
140 740 m 257
 329 740 l 257
 423 740 483 723 532 687 c 257
 532 688 l 257
 567 655 595 601 595 537 c 256
 595 468 570 416 529 383 c 256
 470 335 376 321 299 321 c 257
 138 321 l 257
 138 397 l 257
 309 397 l 257
 373 397 419 404 453 426 c 256
 484 447 498 478 498 527 c 256
 498 638 420 665 329 665 c 257
 140 665 l 257
 140 740 l 257
52 740 m 257
 145 740 l 257
 145 0 l 257
 52 0 l 257
 52 740 l 257
EndSplineSet
Validated: 5
EndChar

StartChar: S
Encoding: 83 83 19
GlifName: S_
Width: 650
VWidth: 0
Flags: W
LayerCount: 2
Fore
SplineSet
587 559 m 257
 585 682 487 750 308 750 c 256
 128 750 63 637 63 541 c 256
 63 489 91 370 287 349 c 257
 426 336 519 312 519 210 c 256
 519 107 423 68 335 68 c 256
 259 68 153 73 111 217 c 257
 97 214 86 211 73 209 c 256
 59 207 47 203 34 201 c 257
 44 70 158 -10 314 -10 c 256
 513 -10 607 98 607 214 c 256
 607 346 528 402 361 420 c 256
 195 437 153 485 153 550 c 256
 153 647 237 673 323 673 c 256
 405 673 498 637 507 542 c 257
 587 559 l 257
EndSplineSet
Validated: 9
EndChar

StartChar: T
Encoding: 84 84 20
GlifName: T_
Width: 605
VWidth: 0
Flags: W
LayerCount: 2
Fore
SplineSet
20 740 m 257
 585 740 l 257
 585 664 l 257
 20 664 l 257
 20 740 l 257
262 740 m 257
 352 740 l 257
 352 0 l 257
 262 0 l 257
 262 740 l 257
EndSplineSet
Validated: 5
EndChar

StartChar: U
Encoding: 85 85 21
GlifName: U_
Width: 751
VWidth: 0
Flags: W
LayerCount: 2
Fore
SplineSet
378 -10 m 256
 608 -10 685 141 685 291 c 257
 685 740 l 257
 593 740 l 257
 593 291 l 257
 593 119 485 74 378 74 c 256
 271 74 164 119 164 291 c 257
 164 740 l 257
 73 740 l 257
 73 291 l 257
 73 141 149 -10 378 -10 c 256
EndSplineSet
Validated: 9
EndChar

StartChar: V
Encoding: 86 86 22
GlifName: V_
Width: 655
VWidth: 0
Flags: W
LayerCount: 2
Fore
SplineSet
307 0 m 257
 340 0 l 257
 340 24 339 46 339 71 c 257
 338 92 338 123 338 145 c 257
 126 740 l 257
 32 740 l 257
 307 0 l 257
637 740 m 257
 543 740 l 257
 331 145 l 257
 331 127 330 91 330 71 c 256
 329 44 329 20 329 0 c 257
 362 0 l 257
 637 740 l 257
EndSplineSet
Validated: 5
EndChar

StartChar: W
Encoding: 87 87 23
GlifName: W_
Width: 1053
VWidth: 0
Flags: W
LayerCount: 2
Fore
SplineSet
275 0 m 257
 307 0 l 257
 325 145 l 257
 232 442 l 257
 200 543 168 642 138 740 c 257
 48 740 l 257
 275 0 l 257
556 674 m 257
 556 740 l 257
 487 740 l 257
 394 442 l 257
 362 342 330 241 300 145 c 257
 300 127 299 91 299 71 c 256
 298 44 298 20 298 0 c 257
 330 0 l 257
 556 674 l 257
727 0 m 257
 760 0 l 257
 760 24 759 46 759 71 c 257
 758 92 758 123 758 145 c 257
 723 251 l 257
 672 413 619 581 571 740 c 257
 505 740 l 257
 505 664 l 257
 727 0 l 257
1010 740 m 257
 920 740 l 257
 885 634 l 257
 834 473 781 304 733 145 c 257
 751 0 l 257
 783 0 l 257
 1010 740 l 257
EndSplineSet
Validated: 5
EndChar

StartChar: X
Encoding: 88 88 24
GlifName: X_
Width: 711
VWidth: 0
Flags: W
LayerCount: 2
Fore
SplineSet
357 310 m 257
 303 372 l 257
 215 246 129 126 41 0 c 257
 142 0 l 257
 357 310 l 257
359 428 m 257
 373 408 l 257
 384 392 395 375 408 359 c 257
 676 740 l 257
 579 740 l 257
 359 428 l 257
44 740 m 257
 559 0 l 257
 675 0 l 257
 149 740 l 257
 44 740 l 257
EndSplineSet
Validated: 5
EndChar

StartChar: Y
Encoding: 89 89 25
GlifName: Y_
Width: 702
VWidth: 0
Flags: W
LayerCount: 2
Fore
SplineSet
307 0 m 257
 398 0 l 257
 398 390 l 257
 307 390 l 257
 307 0 l 257
350 393 m 257
 366 370 l 257
 376 355 386 339 398 324 c 257
 418 354 438 389 458 419 c 256
 526 527 593 631 662 740 c 257
 561 740 l 257
 350 393 l 257
144 740 m 257
 43 740 l 257
 247 419 l 257
 267 387 286 356 307 324 c 257
 330 358 l 257
 355 393 l 257
 144 740 l 257
EndSplineSet
Validated: 5
EndChar

StartChar: Z
Encoding: 90 90 26
GlifName: Z_
Width: 664
VWidth: 0
Flags: W
LayerCount: 2
Fore
SplineSet
497 686 m 257
 600 686 l 257
 145 54 l 257
 40 54 l 257
 497 686 l 257
46 740 m 257
 604 740 l 257
 604 692 l 257
 598 684 590 674 584 665 c 257
 46 665 l 257
 46 740 l 257
36 49 m 257
 55 75 l 257
 604 75 l 257
 604 0 l 257
 36 0 l 257
 36 49 l 257
EndSplineSet
Validated: 5
EndChar

StartChar: a
Encoding: 97 97 27
GlifName: a
Width: 510
VWidth: 0
Flags: W
LayerCount: 2
Fore
SplineSet
341 297 m 257
 341 349 325 410 240 410 c 256
 128 410 128 346 138 318 c 257
 53 324 l 257
 51 333 51 338 51 346 c 256
 51 427 145 475 239 475 c 256
 330 475 425 445 425 299 c 257
 425 113 l 257
 425 74 433 51 477 56 c 257
 477 -3 l 257
 471 -5 449 -10 435 -10 c 256
 382 -10 354 32 351 66 c 257
 341 70 l 257
 341 297 l 257
355 85 m 257
 314 31 255 -10 184 -10 c 256
 98 -10 38 39 38 116 c 256
 38 187 79 232 149 252 c 256
 176 260 211 262 244 263 c 257
 352 266 l 257
 352 209 l 257
 249 205 l 258
 189 202 128 184 128 122 c 256
 128 78 158 57 201 57 c 256
 253 57 322 97 352 171 c 257
 356 171 l 257
 355 85 l 257
EndSplineSet
Validated: 37
EndChar

StartChar: acute
Encoding: 180 180 28
GlifName: acute
Width: 227
VWidth: 0
Flags: W
HStem: 542 198
LayerCount: 2
Fore
SplineSet
116 740 m 257
 22 542 l 257
 87 542 l 257
 208 740 l 257
 116 740 l 257
EndSplineSet
Validated: 9
EndChar

StartChar: ampersand
Encoding: 38 38 29
GlifName: ampersand
Width: 833
VWidth: 0
Flags: W
LayerCount: 2
Fore
SplineSet
778 0 m 257
 664 101 526 251 425 351 c 256
 366 410 260 494 260 576 c 256
 260 624 298 673 356 673 c 256
 407 673 446 639 446 589 c 256
 446 505 372 473 332 441 c 256
 249 375 129 322 129 191 c 256
 129 78 232 -11 369 -11 c 256
 620 -11 700 158 700 295 c 256
 700 347 683 415 642 463 c 256
 627 480 600 505 577 510 c 257
 536 437 l 257
 551 430 568 413 582 396 c 256
 611 362 624 319 624 287 c 256
 624 203 562 64 379 64 c 256
 294 64 219 130 219 200 c 256
 219 280 296 319 357 367 c 256
 450 440 529 491 529 596 c 256
 529 691 450 752 360 752 c 256
 247 752 175 664 175 571 c 256
 175 450 316 338 402 257 c 257
 658 -1 l 257
 778 0 l 257
EndSplineSet
Validated: 5
EndChar

StartChar: asciitilde
Encoding: 126 126 30
GlifName: asciitilde
Width: 576
VWidth: 0
Flags: W
LayerCount: 2
Fore
SplineSet
77 227 m 257
 77 227 115 292 190 292 c 256
 264 292 286 229 385 229 c 256
 502 229 551 319 551 319 c 257
 499 364 l 257
 499 364 462 299 385 299 c 256
 311 299 298 362 190 362 c 256
 75 362 25 272 25 272 c 257
 77 227 l 257
EndSplineSet
Validated: 9
EndChar

StartChar: at
Encoding: 64 64 31
GlifName: at
Width: 732
VWidth: 0
Flags: W
LayerCount: 2
Fore
SplineSet
448 140 m 257
 424 100 384 65 333 65 c 256
 270 65 225 102 225 159 c 256
 225 212 256 247 307 260 c 256
 354 272 413 266 456 260 c 257
 456 217 l 257
 377 214 l 258
 341 212 305 198 305 163 c 256
 305 140 321 130 344 130 c 256
 376 130 419 151 441 199 c 257
 458 200 l 257
 448 140 l 257
555 -32 m 257
 518 -69 433 -94 365 -94 c 256
 161 -94 50 28 50 226 c 256
 50 445 179 578 377 578 c 256
 536 578 674 485 681 289 c 256
 685 163 643 68 542 66 c 256
 497 66 462 92 455 137 c 257
 453 138 430 139 429 140 c 257
 429 286 l 258
 429 316 420 358 370 358 c 256
 314 358 309 320 316 304 c 257
 236 310 l 257
 234 317 234 320 234 324 c 256
 234 381 302 415 370 415 c 256
 435 415 505 393 505 287 c 258
 505 205 l 258
 505 144 521 129 551 129 c 256
 598 129 607 175 606 282 c 256
 604 432 514 501 379 501 c 256
 198 501 126 409 126 237 c 256
 126 59 201 -21 378 -21 c 256
 417 -21 483 -10 527 16 c 257
 555 -32 l 257
EndSplineSet
Validated: 37
EndChar

StartChar: b
Encoding: 98 98 32
GlifName: b
Width: 552
VWidth: 0
Flags: W
LayerCount: 2
Fore
SplineSet
57 0 m 257
 129 0 l 257
 125 63 l 257
 139 69 l 257
 139 750 l 257
 57 750 l 257
 57 0 l 257
103 274 m 257
 103 274 137 240 139 240 c 257
 139 341 197 405 280 405 c 256
 349 405 423 362 423 232 c 256
 423 99 347 60 282 60 c 256
 188 60 139 139 139 233 c 257
 139 233 102 174 101 174 c 257
 103 96 161 -8 283 -8 c 256
 410 -8 515 74 515 240 c 256
 515 382 422 477 299 477 c 256
 174 477 105 370 103 274 c 257
EndSplineSet
Validated: 5
EndChar

StartChar: backslash
Encoding: 92 92 33
GlifName: backslash
Width: 444
VWidth: 0
Flags: W
LayerCount: 2
Fore
SplineSet
399 0 m 257
 305 0 l 257
 45 757 l 257
 139 757 l 257
 399 0 l 257
EndSplineSet
Validated: 1
EndChar

StartChar: bar
Encoding: 124 124 34
GlifName: bar
Width: 378
VWidth: 0
Flags: W
LayerCount: 2
Fore
SplineSet
145 -210 m 257
 233 -210 l 257
 233 757 l 257
 145 757 l 257
 145 -210 l 257
EndSplineSet
Validated: 9
EndChar

StartChar: braceleft
Encoding: 123 123 35
GlifName: braceleft
Width: 399
VWidth: 0
Flags: W
LayerCount: 2
Fore
SplineSet
85 273 m 257
 133 273 l 258
 363 273 191 705 334 717 c 257
 333 757 l 257
 60 771 267 309 85 298 c 257
 85 273 l 257
85 248 m 257
 267 237 60 -225 333 -211 c 257
 334 -171 l 257
 191 -159 363 273 133 273 c 257
 110 283 l 257
 97 283 l 257
 85 273 l 257
 85 248 l 257
EndSplineSet
Validated: 37
EndChar

StartChar: braceright
Encoding: 125 125 36
GlifName: braceright
Width: 399
VWidth: 0
Flags: W
LayerCount: 2
Fore
SplineSet
314 273 m 257
 266 273 l 258
 36 273 208 705 65 717 c 257
 66 757 l 257
 339 771 132 309 314 298 c 257
 314 273 l 257
314 248 m 257
 132 237 339 -225 66 -211 c 257
 65 -171 l 257
 208 -159 36 273 266 273 c 257
 289 283 l 257
 302 283 l 257
 314 273 l 257
 314 248 l 257
EndSplineSet
Validated: 37
EndChar

StartChar: bracketleft
Encoding: 91 91 37
GlifName: bracketleft
Width: 407
VWidth: 0
Flags: W
LayerCount: 2
Fore
SplineSet
105 -210 m 257
 193 -210 l 257
 193 757 l 257
 105 757 l 257
 105 -210 l 257
107 705 m 257
 381 705 l 257
 381 757 l 257
 107 757 l 257
 107 705 l 257
107 -210 m 257
 381 -210 l 257
 381 -158 l 257
 107 -158 l 257
 107 -210 l 257
EndSplineSet
Validated: 5
EndChar

StartChar: bracketright
Encoding: 93 93 38
GlifName: bracketright
Width: 407
VWidth: 0
Flags: W
LayerCount: 2
Fore
SplineSet
302 -210 m 257
 214 -210 l 257
 214 757 l 257
 302 757 l 257
 302 -210 l 257
300 705 m 257
 26 705 l 257
 26 757 l 257
 300 757 l 257
 300 705 l 257
300 -210 m 257
 26 -210 l 257
 26 -158 l 257
 300 -158 l 257
 300 -210 l 257
EndSplineSet
Validated: 5
EndChar

StartChar: c
Encoding: 99 99 39
GlifName: c
Width: 493
VWidth: 0
Flags: W
LayerCount: 2
Fore
SplineSet
383 179 m 257
 383 145 374 114 356 95 c 256
 332 71 302 58 267 58 c 256
 169 58 128 141 128 234 c 256
 128 325 181 413 268 413 c 256
 303 413 336 402 360 374 c 256
 375 358 386 332 384 302 c 257
 464 313 l 257
 470 362 442 406 409 434 c 256
 371 466 323 479 266 479 c 256
 135 479 41 373 41 227 c 256
 41 86 115 -9 253 -9 c 256
 310 -9 361 4 401 35 c 256
 438 65 471 114 466 168 c 257
 383 179 l 257
EndSplineSet
Validated: 41
EndChar

StartChar: cedilla
Encoding: 184 184 40
GlifName: cedilla
Width: 243
VWidth: 0
Flags: W
HStem: -214 55<43.4196 146.681> -79 90<83 136.282>
VStem: 83 57<-20.5 11> 150 76<-154.316 -90.7422>
LayerCount: 2
Fore
SplineSet
83 11 m 257
 63 -79 l 257
 111 -74 150 -94 150 -125 c 256
 150 -150 126 -159 104 -159 c 256
 75 -159 49 -147 49 -147 c 257
 32 -196 l 257
 46 -203 72 -214 114 -214 c 256
 165 -214 226 -192 226 -126 c 256
 226 -72 183 -46 137 -35 c 257
 140 11 l 257
 83 11 l 257
EndSplineSet
Validated: 41
EndChar

StartChar: circumflex
Encoding: 257 710 41
GlifName: circumflex
Width: 348
VWidth: 0
Flags: W
LayerCount: 2
Fore
SplineSet
145 750 m 257
 -7 542 l 257
 75 542 l 257
 176 669 l 257
 277 542 l 257
 359 542 l 257
 207 750 l 257
 145 750 l 257
EndSplineSet
Validated: 9
EndChar

StartChar: colon
Encoding: 58 58 42
GlifName: colon
Width: 335
VWidth: 0
Flags: W
LayerCount: 2
Fore
SplineSet
95 401 m 256
 95 359 127 327 169 327 c 256
 214 327 247 359 247 401 c 256
 247 446 214 479 169 479 c 256
 127 479 95 446 95 401 c 256
95 68 m 256
 95 26 127 -6 169 -6 c 256
 214 -6 247 26 247 68 c 256
 247 113 214 146 169 146 c 256
 127 146 95 113 95 68 c 256
EndSplineSet
Validated: 9
EndChar

StartChar: comma
Encoding: 44 44 43
GlifName: comma
Width: 228
VWidth: 0
Flags: W
LayerCount: 2
Fore
SplineSet
28 73 m 256
 28 37 50 0 101 0 c 256
 113 0 126 5 132 11 c 257
 99 35 l 257
 136 -36 34 -124 34 -124 c 257
 72 -167 l 257
 100 -146 136 -108 156 -72 c 256
 177 -33 187 8 187 48 c 256
 187 75 180 95 168 111 c 256
 154 130 132 144 99 144 c 256
 59 144 28 112 28 73 c 256
EndSplineSet
Validated: 37
EndChar

StartChar: d
Encoding: 100 100 44
GlifName: d
Width: 567
VWidth: 0
Flags: W
LayerCount: 2
Fore
SplineSet
413 75 m 257
 428 70 l 257
 425 0 l 257
 496 0 l 257
 496 750 l 257
 413 750 l 257
 413 75 l 257
449 196 m 257
 449 196 415 230 413 230 c 257
 413 129 355 65 272 65 c 256
 203 65 129 108 129 238 c 256
 129 371 205 410 270 410 c 256
 364 410 413 331 413 237 c 257
 413 237 450 296 451 296 c 257
 449 384 391 478 269 478 c 256
 142 478 36 396 36 230 c 256
 36 88 130 -7 253 -7 c 256
 378 -7 447 80 449 196 c 257
EndSplineSet
Validated: 5
EndChar

StartChar: dieresis
Encoding: 168 168 45
GlifName: dieresis
Width: 293
VWidth: 0
Flags: W
HStem: 582 106<11.4902 105.826 186.49 280.826>
VStem: 3 111<590.738 679.262> 178 111<590.738 679.262>
LayerCount: 2
Fore
SplineSet
3 635 m 256
 3 602 24 582 59 582 c 256
 94 582 114 602 114 635 c 256
 114 668 94 688 59 688 c 256
 24 688 3 668 3 635 c 256
178 635 m 256
 178 602 199 582 234 582 c 256
 269 582 289 602 289 635 c 256
 289 668 269 688 234 688 c 256
 199 688 178 668 178 635 c 256
EndSplineSet
Validated: 9
EndChar

StartChar: e
Encoding: 101 101 46
GlifName: e
Width: 504
VWidth: 0
Flags: W
LayerCount: 2
Fore
SplineSet
116 218 m 257
 464 218 l 257
 464 274 l 257
 116 274 l 257
 116 218 l 257
374 159 m 257
 375 131 364 109 349 93 c 256
 326 70 298 57 262 57 c 256
 157 57 122 138 122 234 c 256
 122 328 161 409 258 409 c 256
 330 409 382 355 378 271 c 257
 463 272 l 257
 462 397 375 475 257 475 c 256
 129 475 40 373 40 227 c 256
 40 86 109 -9 248 -9 c 256
 315 -9 368 6 408 46 c 256
 434 71 458 108 455 148 c 257
 374 159 l 257
EndSplineSet
Validated: 37
EndChar

StartChar: eight
Encoding: 56 56 47
GlifName: eight
Width: 672
VWidth: 0
Flags: W
LayerCount: 2
Fore
SplineSet
337 674 m 256
 457 674 523 630 523 548 c 256
 523 463 457 421 337 421 c 256
 220 421 157 453 157 548 c 256
 157 630 220 674 337 674 c 256
337 756 m 256
 165 756 59 684 59 548 c 256
 59 418 148 345 337 345 c 256
 504 345 621 418 621 548 c 256
 621 684 510 756 337 756 c 256
337 73 m 256
 207 73 136 120 136 209 c 256
 136 283 207 345 337 345 c 256
 470 345 543 301 543 209 c 256
 543 120 470 73 337 73 c 256
337 -9 m 256
 523 -9 641 66 641 209 c 256
 641 347 516 422 337 422 c 256
 133 422 38 322 38 209 c 256
 38 67 153 -9 337 -9 c 256
EndSplineSet
Validated: 5
EndChar

StartChar: ellipsis
Encoding: 258 8230 48
GlifName: ellipsis
Width: 909
VWidth: 0
Flags: W
LayerCount: 2
Fore
SplineSet
90 70 m 256
 90 26 122 -6 166 -6 c 256
 211 -6 245 26 245 70 c 256
 245 115 211 149 166 149 c 256
 122 149 90 115 90 70 c 256
377 70 m 256
 377 26 409 -6 453 -6 c 256
 498 -6 532 26 532 70 c 256
 532 115 498 149 453 149 c 256
 409 149 377 115 377 70 c 256
664 70 m 256
 664 26 696 -6 740 -6 c 256
 785 -6 819 26 819 70 c 256
 819 115 785 149 740 149 c 256
 696 149 664 115 664 70 c 256
EndSplineSet
Validated: 9
EndChar

StartChar: emdash
Encoding: 259 8212 49
GlifName: emdash
Width: 747
VWidth: 0
Flags: W
LayerCount: 2
Fore
SplineSet
752 214 m 257
 752 277 l 257
 -5 277 l 257
 -5 214 l 257
 752 214 l 257
EndSplineSet
Validated: 9
EndChar

StartChar: endash
Encoding: 260 8211 50
GlifName: endash
Width: 369
VWidth: 0
Flags: W
LayerCount: 2
Fore
SplineSet
374 214 m 257
 374 277 l 257
 -5 277 l 257
 -5 214 l 257
 374 214 l 257
EndSplineSet
Validated: 9
EndChar

StartChar: exclam
Encoding: 33 33 51
GlifName: exclam
Width: 319
VWidth: 0
Flags: W
LayerCount: 2
Fore
SplineSet
122 496 m 257
 122 740 l 257
 214 740 l 257
 214 496 l 257
 201 220 l 257
 135 220 l 257
 122 496 l 257
97 68 m 256
 97 26 129 -6 171 -6 c 256
 216 -6 249 26 249 68 c 256
 249 113 216 146 171 146 c 256
 129 146 97 113 97 68 c 256
EndSplineSet
Validated: 9
EndChar

StartChar: f
Encoding: 102 102 52
GlifName: f
Width: 296
VWidth: 0
Flags: W
LayerCount: 2
Fore
SplineSet
185 440 m 257
 185 440 185 401 185 434 c 256
 185 535 156 570 156 629 c 256
 156 663 179 685 206 685 c 257
 269 685 281 648 276 602 c 257
 356 619 l 257
 360 636 360 651 357 664 c 256
 341 727 284 750 211 750 c 256
 154 750 73 710 73 629 c 256
 73 573 103 532 103 462 c 256
 103 420 103 0 103 0 c 257
 185 0 l 257
 185 440 l 257
297 404 m 257
 297 470 l 257
 15 470 l 257
 15 404 l 257
 297 404 l 257
EndSplineSet
Validated: 37
EndChar

StartChar: five
Encoding: 53 53 54
GlifName: five
Width: 672
VWidth: 0
Flags: W
LayerCount: 2
Fore
SplineSet
147 196 m 257
 158 101 250 65 322 65 c 256
 446 65 526 129 526 248 c 256
 526 359 434 423 335 423 c 256
 275 423 182 386 161 329 c 257
 99 361 l 257
 107 375 115 386 123 401 c 257
 123 400 l 257
 169 472 273 503 337 503 c 257
 480 508 613 429 613 250 c 256
 613 97 500 -11 338 -11 c 256
 171 -11 70 59 66 180 c 257
 147 196 l 257
127 746 m 257
 209 746 l 257
 179 363 l 257
 99 363 l 257
 127 746 l 257
141 746 m 257
 559 746 l 257
 559 666 l 257
 141 666 l 257
 141 746 l 257
EndSplineSet
Validated: 37
EndChar

StartChar: four
Encoding: 52 52 56
GlifName: four
Width: 672
VWidth: 0
Flags: W
LayerCount: 2
Fore
SplineSet
404 740 m 257
 494 740 l 257
 494 0 l 257
 404 0 l 257
 404 740 l 257
62 270 m 257
 618 270 l 257
 618 187 l 257
 62 187 l 257
 62 270 l 257
404 623 m 257
 155 270 l 257
 62 270 l 257
 171 420 295 589 404 740 c 257
 404 623 l 257
EndSplineSet
Validated: 5
EndChar

StartChar: fraction
Encoding: 263 8260 57
GlifName: fraction
Width: 500
VWidth: 0
Flags: W
LayerCount: 2
Fore
SplineSet
45 0 m 257
 105 0 l 257
 455 701 l 257
 395 701 l 257
 45 0 l 257
EndSplineSet
Validated: 9
EndChar

StartChar: g
Encoding: 103 103 58
GlifName: g
Width: 521
VWidth: 0
Flags: W
LayerCount: 2
Fore
SplineSet
264 154 m 257
 262 154 l 257
 175 154 140 125 140 100 c 256
 140 59 165 56 311 56 c 256
 417 56 515 17 515 -78 c 256
 515 -210 351 -250 253 -250 c 256
 113 -250 34 -196 34 -110 c 256
 34 -46 129 0 157 -8 c 257
 229 -15 l 257
 177 -27 122 -53 122 -99 c 256
 122 -154 189 -179 255 -179 c 256
 344 -179 430 -146 430 -90 c 256
 430 -50 394 -14 276 -16 c 256
 254 -16 242 -17 232 -17 c 256
 218 -17 209 -18 186 -18 c 257
 184 -18 l 257
 184 -12 l 257
 112 -12 55 18 55 82 c 256
 55 135 102 192 263 192 c 257
 265 192 l 257
 264 154 l 257
61 304 m 257
 61 395 128 475 263 475 c 256
 399 475 465 395 465 304 c 256
 465 215 399 135 263 135 c 256
 128 135 61 215 61 304 c 257
148 304 m 257
 148 244 191 196 263 196 c 256
 336 196 379 244 379 304 c 256
 379 366 336 414 263 414 c 256
 191 414 148 366 148 304 c 257
480 505 m 257
 461 529 438 537 407 536 c 256
 378 535 363 509 363 490 c 256
 363 466 368 459 385 445 c 257
 354 422 l 257
 301 456 296 472 296 506 c 256
 296 567 353 602 412 602 c 256
 465 602 504 585 525 547 c 257
 480 505 l 257
EndSplineSet
Validated: 37
EndChar

StartChar: grave
Encoding: 96 96 59
GlifName: grave
Width: 833
VWidth: 0
Flags: W
LayerCount: 2
Fore
SplineSet
312 740 m 257
 406 542 l 257
 341 542 l 257
 220 740 l 257
 312 740 l 257
EndSplineSet
Validated: 1
EndChar

StartChar: guillemotleft
Encoding: 171 171 60
GlifName: guillemotleft
Width: 517
VWidth: 0
Flags: W
LayerCount: 2
Fore
SplineSet
170 41 m 257
 274 41 l 257
 184 255 l 257
 274 470 l 257
 170 470 l 257
 80 255 l 257
 170 41 l 257
351 41 m 257
 455 41 l 257
 365 255 l 257
 455 470 l 257
 351 470 l 257
 261 255 l 257
 351 41 l 257
EndSplineSet
Validated: 9
EndChar

StartChar: guillemotright
Encoding: 187 187 61
GlifName: guillemotright
Width: 517
VWidth: 0
Flags: W
LayerCount: 2
Fore
SplineSet
345 41 m 257
 241 41 l 257
 331 255 l 257
 241 470 l 257
 345 470 l 257
 435 255 l 257
 345 41 l 257
164 41 m 257
 60 41 l 257
 150 255 l 257
 60 470 l 257
 164 470 l 257
 254 255 l 257
 164 41 l 257
EndSplineSet
Validated: 1
EndChar

StartChar: guilsinglleft
Encoding: 264 8249 62
GlifName: guilsinglleft
Width: 334
VWidth: 0
Flags: W
LayerCount: 2
Fore
SplineSet
170 41 m 257
 274 41 l 257
 184 255 l 257
 274 470 l 257
 170 470 l 257
 80 255 l 257
 170 41 l 257
EndSplineSet
Validated: 9
EndChar

StartChar: guilsinglright
Encoding: 265 8250 63
GlifName: guilsinglright
Width: 334
VWidth: 0
Flags: W
LayerCount: 2
Fore
SplineSet
179 42 m 257
 75 42 l 257
 165 256 l 257
 75 471 l 257
 179 471 l 257
 269 256 l 257
 179 42 l 257
EndSplineSet
Validated: 1
EndChar

StartChar: h
Encoding: 104 104 64
GlifName: h
Width: 496
VWidth: 0
Flags: W
LayerCount: 2
Fore
SplineSet
57 0 m 257
 139 0 l 257
 139 750 l 257
 57 750 l 257
 57 0 l 257
366 0 m 257
 448 0 l 257
 448 292 l 257
 448 401 396 475 280 475 c 256
 186 475 113 397 115 306 c 257
 134 255 l 257
 139 255 l 257
 139 369 216 398 262 398 c 256
 322 398 366 365 366 274 c 257
 366 0 l 257
EndSplineSet
Validated: 37
EndChar

StartChar: hyphen
Encoding: 45 45 65
GlifName: hyphen
Width: 425
VWidth: 0
Flags: W
LayerCount: 2
Fore
SplineSet
55 230 m 257
 370 230 l 257
 370 313 l 257
 55 313 l 257
 55 230 l 257
EndSplineSet
Validated: 9
EndChar

StartChar: i
Encoding: 105 105 66
GlifName: i
Width: 235
VWidth: 0
Flags: W
LayerCount: 2
Fore
SplineSet
75 470 m 257
 157 470 l 257
 157 0 l 257
 75 0 l 257
 75 470 l 257
61 655 m 256
 61 622 82 602 117 602 c 256
 152 602 172 622 172 655 c 256
 172 688 152 708 117 708 c 256
 82 708 61 688 61 655 c 256
EndSplineSet
Validated: 9
EndChar

StartChar: j
Encoding: 106 106 67
GlifName: j
Width: 271
VWidth: 0
Flags: W
LayerCount: 2
Fore
SplineSet
99 -43 m 257
 100 -133 85 -181 33 -181 c 256
 18 -181 -3 -181 -31 -170 c 257
 -35 -240 l 257
 15 -252 81 -256 118 -231 c 256
 168 -197 181 -140 181 -40 c 258
 181 470 l 257
 99 470 l 257
 99 -43 l 257
88 655 m 256
 88 622 109 602 144 602 c 256
 179 602 199 622 199 655 c 256
 199 688 179 708 144 708 c 256
 109 708 88 688 88 655 c 256
EndSplineSet
Validated: 41
EndChar

StartChar: k
Encoding: 107 107 68
GlifName: k
Width: 478
VWidth: 0
Flags: W
LayerCount: 2
Fore
SplineSet
137 145 m 257
 469 469 l 257
 364 469 l 257
 130 238 l 257
 137 145 l 257
192 263 m 257
 380 0 l 257
 483 0 l 257
 253 323 l 257
 192 263 l 257
77 0 m 257
 159 0 l 257
 159 750 l 257
 77 750 l 257
 77 0 l 257
EndSplineSet
Validated: 5
EndChar

StartChar: l
Encoding: 108 108 69
GlifName: l
Width: 219
VWidth: 0
Flags: W
LayerCount: 2
Fore
SplineSet
73 750 m 257
 155 750 l 257
 155 0 l 257
 73 0 l 257
 73 750 l 257
EndSplineSet
Validated: 1
EndChar

StartChar: m
Encoding: 109 109 70
GlifName: m
Width: 823
VWidth: 0
Flags: W
LayerCount: 2
Fore
SplineSet
57 0 m 257
 139 0 l 257
 139 356 l 257
 131 360 l 257
 131 470 l 257
 57 470 l 257
 57 0 l 257
365 0 m 257
 447 0 l 257
 447 292 l 258
 447 401 389 475 280 475 c 256
 186 475 113 397 115 306 c 257
 134 255 l 257
 139 255 l 257
 139 369 216 398 262 398 c 256
 316 398 365 365 365 274 c 258
 365 0 l 257
673 0 m 257
 755 0 l 257
 755 292 l 258
 755 401 697 475 588 475 c 256
 494 475 421 407 423 316 c 257
 442 255 l 257
 447 255 l 257
 447 369 524 398 570 398 c 256
 624 398 673 365 673 274 c 258
 673 0 l 257
EndSplineSet
Validated: 37
EndChar

StartChar: n
Encoding: 110 110 71
GlifName: n
Width: 535
VWidth: 0
Flags: W
LayerCount: 2
Fore
SplineSet
82 0 m 257
 164 0 l 257
 164 356 l 257
 156 360 l 257
 156 470 l 257
 82 470 l 257
 82 0 l 257
391 0 m 257
 473 0 l 257
 473 292 l 258
 473 401 421 475 305 475 c 256
 211 475 138 397 140 306 c 257
 159 255 l 257
 164 255 l 257
 164 369 241 398 287 398 c 256
 347 398 391 365 391 274 c 258
 391 0 l 257
EndSplineSet
Validated: 37
EndChar

StartChar: nine
Encoding: 57 57 72
GlifName: nine
Width: 672
VWidth: 0
Flags: W
LayerCount: 2
Fore
SplineSet
332 680 m 256
 215 680 139 619 139 507 c 256
 139 397 214 336 313 336 c 256
 439 336 508 409 512 524 c 257
 493 611 446 680 332 680 c 256
525 375 m 257
 475 290 412 258 318 258 c 256
 174 258 51 323 51 495 c 256
 51 663 165 756 327 756 c 256
 567 756 614 569 614 371 c 256
 614 177 539 -11 320 -11 c 256
 161 -11 72 59 69 180 c 257
 150 196 l 257
 158 98 246 66 315 66 c 256
 484 66 525 214 525 370 c 258
 525 375 l 257
EndSplineSet
Validated: 1
EndChar

StartChar: o
Encoding: 111 111 73
GlifName: o
Width: 545
VWidth: 0
Flags: W
LayerCount: 2
Fore
SplineSet
40 223 m 257
 40 350 116 477 273 477 c 256
 428 477 505 360 505 233 c 256
 505 107 428 -10 273 -10 c 256
 116 -10 40 107 40 223 c 257
131 233 m 257
 131 149 169 56 273 56 c 256
 377 56 413 149 413 233 c 256
 413 318 377 411 273 411 c 256
 169 411 131 318 131 233 c 257
EndSplineSet
Validated: 1
EndChar

StartChar: one
Encoding: 49 49 74
GlifName: one
Width: 672
VWidth: 0
Flags: W
LayerCount: 2
Fore
SplineSet
288 746 m 257
 377 746 l 257
 377 0 l 257
 288 0 l 257
 288 746 l 257
92 83 m 257
 586 83 l 257
 586 0 l 257
 92 0 l 257
 92 83 l 257
298 582 m 257
 267 543 218 529 169 529 c 256
 153 529 119 532 96 545 c 257
 96 606 l 257
 105 605 116 605 128 605 c 256
 188 605 284 630 288 746 c 257
 298 746 l 257
 298 582 l 257
EndSplineSet
Validated: 5
EndChar

StartChar: p
Encoding: 112 112 75
GlifName: p
Width: 552
VWidth: 0
Flags: W
LayerCount: 2
Fore
SplineSet
139 396 m 257
 123 400 l 257
 127 470 l 257
 57 470 l 257
 57 -250 l 257
 139 -250 l 257
 139 396 l 257
103 274 m 257
 103 274 137 240 139 240 c 257
 139 341 197 405 280 405 c 256
 349 405 423 362 423 232 c 256
 423 99 347 60 282 60 c 256
 188 60 139 139 139 233 c 257
 139 233 102 174 101 174 c 257
 103 86 161 -8 283 -8 c 256
 410 -8 515 74 515 240 c 256
 515 382 422 477 299 477 c 256
 174 477 105 390 103 274 c 257
EndSplineSet
Validated: 5
EndChar

StartChar: parenleft
Encoding: 40 40 76
GlifName: parenleft
Width: 400
VWidth: 0
Flags: W
LayerCount: 2
Fore
SplineSet
61 278 m 257
 61 503 166 679 224 757 c 257
 318 756 l 257
 266 698 160 499 160 278 c 257
 61 278 l 257
160 278 m 257
 160 57 266 -142 318 -200 c 257
 224 -201 l 257
 166 -123 61 53 61 278 c 257
 160 278 l 257
EndSplineSet
Validated: 5
EndChar

StartChar: parenright
Encoding: 41 41 77
GlifName: parenright
Width: 400
VWidth: 0
Flags: W
LayerCount: 2
Fore
SplineSet
339 278 m 257
 339 503 234 679 176 757 c 257
 82 756 l 257
 134 698 240 499 240 278 c 257
 339 278 l 257
240 278 m 257
 240 57 134 -142 82 -200 c 257
 176 -201 l 257
 234 -123 339 53 339 278 c 257
 240 278 l 257
EndSplineSet
Validated: 5
EndChar

StartChar: period
Encoding: 46 46 78
GlifName: period
Width: 228
VWidth: 0
Flags: W
LayerCount: 2
Fore
SplineSet
25 68 m 256
 25 26 57 -6 99 -6 c 256
 144 -6 177 26 177 68 c 256
 177 113 144 146 99 146 c 256
 57 146 25 113 25 68 c 256
EndSplineSet
Validated: 9
EndChar

StartChar: q
Encoding: 113 113 79
GlifName: q
Width: 571
VWidth: 0
Flags: W
LayerCount: 2
Fore
SplineSet
495 470 m 257
 428 470 l 257
 429 411 l 257
 413 407 l 257
 413 -250 l 257
 495 -250 l 257
 495 470 l 257
449 195 m 257
 449 195 415 229 413 229 c 257
 413 128 355 64 272 64 c 256
 203 64 129 107 129 237 c 256
 129 370 205 409 270 409 c 256
 364 409 413 330 413 236 c 257
 413 236 450 295 451 295 c 257
 449 383 391 477 269 477 c 256
 142 477 37 395 37 229 c 256
 37 87 130 -8 253 -8 c 256
 378 -8 447 79 449 195 c 257
EndSplineSet
Validated: 5
EndChar

StartChar: question
Encoding: 63 63 80
GlifName: question
Width: 534
VWidth: 0
Flags: W
LayerCount: 2
Fore
SplineSet
27 565 m 257
 30 686 122 756 289 756 c 256
 421 756 524 676 524 578 c 256
 524 449 418 432 313 401 c 257
 247 381 204 364 204 315 c 256
 204 274 227 260 265 261 c 256
 297 262 321 296 321 312 c 257
 385 303 l 257
 387 233 322 193 256 191 c 256
 167 188 115 253 118 319 c 256
 121 394 183 441 251 459 c 256
 352 486 429 502 429 570 c 256
 429 655 326 679 274 679 c 256
 199 679 116 647 108 549 c 257
 27 565 l 257
169 68 m 256
 169 26 201 -6 243 -6 c 256
 288 -6 321 26 321 68 c 256
 321 113 288 146 243 146 c 256
 201 146 169 113 169 68 c 256
EndSplineSet
Validated: 41
EndChar

StartChar: quotedblleft
Encoding: 266 8220 81
GlifName: quotedblleft
Width: 453
VWidth: 0
Flags: W
LayerCount: 2
Fore
SplineSet
415 522 m 256
 415 558 393 595 342 595 c 256
 330 595 317 590 311 584 c 257
 344 560 l 257
 307 631 409 719 409 719 c 257
 371 762 l 257
 343 741 307 703 287 667 c 256
 266 628 256 587 256 547 c 256
 256 520 263 500 275 484 c 256
 289 465 311 451 344 451 c 256
 384 451 415 483 415 522 c 256
201 522 m 256
 201 558 179 595 128 595 c 256
 116 595 103 590 97 584 c 257
 130 560 l 257
 93 631 195 719 195 719 c 257
 157 762 l 257
 129 741 93 703 73 667 c 256
 52 628 42 587 42 547 c 256
 42 520 49 500 61 484 c 256
 75 465 97 451 130 451 c 256
 170 451 201 483 201 522 c 256
EndSplineSet
Validated: 37
EndChar

StartChar: quotedblright
Encoding: 267 8221 82
GlifName: quotedblright
Width: 453
VWidth: 0
Flags: W
LayerCount: 2
Fore
SplineSet
42 691 m 256
 42 655 64 618 115 618 c 256
 127 618 140 623 146 629 c 257
 113 653 l 257
 150 582 48 494 48 494 c 257
 86 451 l 257
 114 472 150 510 170 546 c 256
 191 585 201 626 201 666 c 256
 201 693 194 713 182 729 c 256
 168 748 146 762 113 762 c 256
 73 762 42 730 42 691 c 256
256 691 m 256
 256 655 278 618 329 618 c 256
 341 618 354 623 360 629 c 257
 327 653 l 257
 364 582 262 494 262 494 c 257
 300 451 l 257
 328 472 364 510 384 546 c 256
 405 585 415 626 415 666 c 256
 415 693 408 713 396 729 c 256
 382 748 360 762 327 762 c 256
 287 762 256 730 256 691 c 256
EndSplineSet
Validated: 37
EndChar

StartChar: quoteleft
Encoding: 268 8216 83
GlifName: quoteleft
Width: 234
VWidth: 0
Flags: W
LayerCount: 2
Fore
SplineSet
191 522 m 256
 191 558 169 595 118 595 c 256
 106 595 93 590 87 584 c 257
 120 560 l 257
 83 631 185 719 185 719 c 257
 147 762 l 257
 119 741 83 703 63 667 c 256
 42 628 32 587 32 547 c 256
 32 520 39 500 51 484 c 256
 65 465 87 451 120 451 c 256
 160 451 191 483 191 522 c 256
EndSplineSet
Validated: 37
EndChar

StartChar: quoteright
Encoding: 269 8217 84
GlifName: quoteright
Width: 234
VWidth: 0
Flags: W
LayerCount: 2
Fore
SplineSet
42 691 m 256
 42 655 64 618 115 618 c 256
 127 618 140 623 146 629 c 257
 113 653 l 257
 150 582 48 494 48 494 c 257
 86 451 l 257
 114 472 150 510 170 546 c 256
 191 585 201 626 201 666 c 256
 201 693 194 713 182 729 c 256
 168 748 146 762 113 762 c 256
 73 762 42 730 42 691 c 256
EndSplineSet
Validated: 37
EndChar

StartChar: r
Encoding: 114 114 85
GlifName: r
Width: 400
VWidth: 0
Flags: W
LayerCount: 2
Fore
SplineSet
393 316 m 257
 394 328 395 340 395 350 c 256
 395 436 339 475 258 475 c 256
 188 475 120 401 117 301 c 257
 139 199 l 257
 143 199 l 257
 141 274 157 333 175 359 c 256
 189 384 212 405 240 405 c 256
 261 405 293 403 306 356 c 256
 309 345 309 320 307 302 c 257
 393 316 l 257
61 0 m 257
 143 0 l 257
 143 356 l 257
 135 360 l 257
 135 470 l 257
 61 470 l 257
 61 0 l 257
EndSplineSet
Validated: 37
EndChar

StartChar: s
Encoding: 115 115 86
GlifName: s
Width: 441
VWidth: 0
Flags: W
LayerCount: 2
Fore
SplineSet
312 338 m 257
 309 393 254 410 208 410 c 256
 156 410 122 384 122 350 c 256
 122 314 143 297 238 276 c 257
 341 254 398 218 398 137 c 256
 398 60 339 -9 205 -9 c 256
 119 -9 27 36 31 130 c 257
 103 148 l 257
 113 85 151 56 217 56 c 256
 281 56 316 83 316 122 c 256
 316 169 269 184 198 201 c 256
 142 214 101 231 76 254 c 256
 51 278 43 309 43 337 c 257
 43 399 92 475 217 475 c 256
 291 475 390 439 386 354 c 257
 312 338 l 257
EndSplineSet
Validated: 33
EndChar

StartChar: semicolon
Encoding: 59 59 87
GlifName: semicolon
Width: 338
VWidth: 0
Flags: W
LayerCount: 2
Fore
SplineSet
93 401 m 256
 93 359 125 327 167 327 c 256
 212 327 245 359 245 401 c 256
 245 446 212 479 167 479 c 256
 125 479 93 446 93 401 c 256
92 73 m 256
 92 37 114 0 165 0 c 256
 177 0 190 5 196 11 c 257
 163 35 l 257
 200 -36 98 -124 98 -124 c 257
 136 -167 l 257
 164 -146 200 -108 220 -72 c 256
 241 -33 251 8 251 48 c 256
 251 75 244 95 232 111 c 256
 218 130 196 144 163 144 c 256
 123 144 92 112 92 73 c 256
EndSplineSet
Validated: 37
EndChar

StartChar: seven
Encoding: 55 55 88
GlifName: seven
Width: 672
VWidth: 0
Flags: W
LayerCount: 2
Fore
SplineSet
178 0 m 257
 179 60 194 131 217 201 c 256
 260 330 332 463 412 566 c 256
 439 601 465 633 491 662 c 257
 352 662 204 661 65 661 c 257
 65 746 l 257
 616 746 l 257
 616 672 l 257
 580 633 533 578 492 522 c 256
 415 417 350 309 310 191 c 256
 290 132 272 55 271 0 c 257
 178 0 l 257
EndSplineSet
Validated: 1
EndChar

StartChar: six
Encoding: 54 54 89
GlifName: six
Width: 672
VWidth: 0
Flags: W
LayerCount: 2
Fore
SplineSet
333 65 m 256
 450 65 526 126 526 238 c 256
 526 348 451 409 352 409 c 256
 226 409 157 336 153 221 c 257
 172 134 219 65 333 65 c 256
140 370 m 257
 190 455 253 487 347 487 c 256
 491 487 614 422 614 250 c 256
 614 82 500 -11 338 -11 c 256
 98 -11 51 176 51 374 c 256
 51 568 126 756 345 756 c 256
 504 756 593 686 596 565 c 257
 515 549 l 257
 507 647 419 679 350 679 c 256
 181 679 140 531 140 375 c 257
 140 370 l 257
EndSplineSet
Validated: 1
EndChar

StartChar: slash
Encoding: 47 47 90
GlifName: slash
Width: 444
VWidth: 0
Flags: W
LayerCount: 2
Fore
SplineSet
45 0 m 257
 139 0 l 257
 399 757 l 257
 305 757 l 257
 45 0 l 257
EndSplineSet
Validated: 9
EndChar

StartChar: t
Encoding: 116 116 92
GlifName: t
Width: 319
VWidth: 0
Flags: W
LayerCount: 2
Fore
SplineSet
282 75 m 257
 260 68 233 65 216 65 c 256
 189 65 176 74 176 143 c 257
 176 438 l 257
 94 438 l 257
 94 149 l 257
 94 54 91 -6 183 -6 c 256
 216 -6 255 0 283 9 c 257
 282 75 l 257
296 404 m 257
 296 467 l 257
 176 467 l 257
 176 665 l 257
 94 635 l 257
 94 467 l 257
 18 467 l 257
 18 404 l 257
 296 404 l 257
EndSplineSet
Validated: 37
EndChar

StartChar: three
Encoding: 51 51 93
GlifName: three
Width: 672
VWidth: 0
Flags: W
LayerCount: 2
Fore
SplineSet
76 565 m 257
 79 686 175 756 348 756 c 256
 486 756 583 672 583 568 c 256
 583 439 485 353 311 351 c 257
 311 377 309 395 309 421 c 257
 439 423 495 488 495 557 c 256
 495 649 388 679 332 679 c 256
 254 679 166 647 157 549 c 257
 76 565 l 257
147 196 m 257
 158 101 250 65 322 65 c 256
 446 65 526 109 526 207 c 256
 526 287 463 350 309 351 c 257
 309 377 311 395 311 421 c 257
 502 420 613 338 613 209 c 256
 613 75 500 -11 338 -11 c 256
 171 -11 70 59 66 180 c 257
 147 196 l 257
227 421 m 257
 325 421 l 257
 325 351 l 257
 227 351 l 257
 227 421 l 257
EndSplineSet
Validated: 5
EndChar

StartChar: tilde
Encoding: 270 732 94
GlifName: tilde
Width: 371
VWidth: 0
Flags: W
LayerCount: 2
Fore
SplineSet
68 593 m 257
 68 617 75 656 116 656 c 256
 149 656 182 598 240 598 c 256
 328 598 356 667 356 733 c 257
 303 733 l 257
 303 709 302 670 255 670 c 256
 222 670 189 728 131 728 c 256
 43 728 15 659 15 593 c 257
 68 593 l 257
EndSplineSet
Validated: 9
EndChar

StartChar: two
Encoding: 50 50 95
GlifName: two
Width: 672
VWidth: 0
Flags: W
LayerCount: 2
Fore
SplineSet
88 565 m 257
 91 686 187 756 360 756 c 256
 498 756 595 665 595 556 c 256
 595 395 499 350 400 302 c 257
 400 303 l 257
 356 283 l 257
 273 244 198 209 170 110 c 256
 168 101 168 94 168 87 c 257
 314 87 468 85 615 85 c 257
 615 0 l 257
 64 0 l 257
 64 8 l 257
 64 76 64 122 92 183 c 257
 91 183 l 257
 131 265 228 318 318 358 c 256
 420 403 507 449 507 545 c 256
 507 644 400 679 345 679 c 256
 266 679 178 647 169 549 c 257
 88 565 l 257
EndSplineSet
Validated: 1
EndChar

StartChar: u
Encoding: 117 117 96
GlifName: u
Width: 508
VWidth: 0
Flags: W
LayerCount: 2
Fore
SplineSet
441 470 m 257
 359 470 l 257
 359 109 l 257
 367 105 l 257
 367 0 l 257
 441 0 l 257
 441 470 l 257
132 470 m 257
 50 470 l 257
 50 173 l 258
 50 64 102 -10 218 -10 c 256
 312 -10 385 68 383 159 c 257
 364 210 l 257
 359 210 l 257
 359 96 282 67 236 67 c 256
 170 67 132 100 132 191 c 258
 132 470 l 257
EndSplineSet
Validated: 37
EndChar

StartChar: underscore
Encoding: 95 95 97
GlifName: underscore
Width: 560
VWidth: 0
Flags: W
LayerCount: 2
Fore
SplineSet
-5 -209 m 257
 565 -209 l 257
 565 -141 l 257
 -5 -141 l 257
 -5 -209 l 257
EndSplineSet
Validated: 9
EndChar

StartChar: v
Encoding: 118 118 98
GlifName: v
Width: 468
VWidth: 0
Flags: W
LayerCount: 2
Fore
SplineSet
275 0 m 257
 232 0 l 257
 232 106 l 257
 369 470 l 257
 452 470 l 257
 275 0 l 257
16 470 m 257
 100 470 l 257
 237 106 l 257
 237 0 l 257
 194 0 l 257
 16 470 l 257
EndSplineSet
Validated: 5
EndChar

StartChar: w
Encoding: 119 119 99
GlifName: w
Width: 725
VWidth: 0
Flags: W
LayerCount: 2
Fore
SplineSet
359 325 m 257
 392 470 l 257
 330 470 l 257
 214 132 l 257
 214 0 l 257
 245 0 l 257
 359 325 l 257
184 0 m 257
 216 0 l 257
 216 132 l 257
 99 470 l 257
 16 470 l 257
 184 0 l 257
709 470 m 257
 626 470 l 257
 510 132 l 257
 510 0 l 257
 542 0 l 257
 709 470 l 257
481 0 m 257
 512 0 l 257
 512 132 l 257
 396 470 l 257
 333 470 l 257
 368 324 l 257
 481 0 l 257
EndSplineSet
Validated: 5
EndChar

StartChar: x
Encoding: 120 120 100
GlifName: x
Width: 464
VWidth: 0
Flags: W
LayerCount: 2
Fore
SplineSet
347 0 m 257
 20 470 l 257
 117 470 l 257
 444 0 l 257
 347 0 l 257
170 202 m 257
 348 470 l 257
 442 470 l 257
 261 202 l 257
 170 202 l 257
290 262 m 257
 116 0 l 257
 22 0 l 257
 199 262 l 257
 290 262 l 257
EndSplineSet
Validated: 5
EndChar

StartChar: y
Encoding: 121 121 101
GlifName: y
Width: 485
VWidth: 0
Flags: W
LayerCount: 2
Fore
SplineSet
3 -224 m 257
 17 -240 44 -245 74 -245 c 256
 118 -245 191 -223 233 -111 c 258
 361 230 l 257
 279 230 l 257
 168 -63 l 258
 137 -141 113 -156 73 -156 c 256
 51 -156 33 -150 20 -139 c 257
 3 -224 l 257
452 470 m 257
 368 470 l 257
 237 122 l 257
 211 -2 l 257
 274 -2 l 257
 452 470 l 257
195 -2 m 257
 259 -2 l 257
 232 122 l 257
 101 470 l 257
 15 470 l 257
 195 -2 l 257
EndSplineSet
Validated: 5
EndChar

StartChar: z
Encoding: 122 122 102
GlifName: z
Width: 426
VWidth: 0
Flags: W
LayerCount: 2
Fore
SplineSet
37 470 m 257
 396 470 l 257
 396 401 l 257
 37 401 l 257
 37 470 l 257
26 69 m 257
 401 69 l 257
 401 0 l 257
 26 0 l 257
 26 69 l 257
296 401 m 257
 396 401 l 257
 126 69 l 257
 26 69 l 257
 296 401 l 257
EndSplineSet
Validated: 5
EndChar

StartChar: zero
Encoding: 48 48 103
GlifName: zero
Width: 672
VWidth: 0
Flags: W
LayerCount: 2
Fore
SplineSet
337 674 m 256
 478 674 553 578 553 374 c 256
 553 168 478 72 337 72 c 256
 200 72 126 157 126 374 c 256
 126 578 200 674 337 674 c 256
337 756 m 256
 147 756 28 623 28 374 c 256
 28 121 126 -10 337 -10 c 256
 523 -10 651 121 651 374 c 256
 651 623 529 756 337 756 c 256
EndSplineSet
Validated: 9
EndChar

StartChar: eacute
Encoding: 233 233 104
GlifName: eacute
Width: 504
VWidth: 0
Flags: W
HStem: -9 66<185.485 331.257> 272 2<378 463> 409 66<183.861 326.636>
VStem: 116 6<218 274> 374 81<97.9763 148> 378 85<271 356.453>
LayerCount: 2
Fore
SplineSet
268 740 m 261xf0
 174 542 l 261
 239 542 l 261
 360 740 l 261
 268 740 l 261xf0
116 218 m 257
 464 218 l 257
 464 274 l 257
 116 274 l 257
 116 218 l 257
374 159 m 257xf8
 375 131 364 109 349 93 c 256
 326 70 298 57 262 57 c 256
 157 57 122 138 122 234 c 256
 122 328 161 409 258 409 c 256
 330 409 382 355 378 271 c 257
 463 272 l 257xf4
 462 397 375 475 257 475 c 256
 129 475 40 373 40 227 c 256
 40 86 109 -9 248 -9 c 256
 315 -9 368 6 408 46 c 256
 434 71 458 108 455 148 c 257
 374 159 l 257xf8
EndSplineSet
Validated: 37
EndChar

StartChar: egrave
Encoding: 232 232 105
GlifName: egrave
Width: 504
VWidth: 0
Flags: W
HStem: -9 66<185.485 331.257> 272 2<378 463> 409 66<183.861 326.636> 720 20G<150 251.495>
VStem: 116 6<218 274> 374 81<97.9763 148> 378 85<271 356.453>
LayerCount: 2
Fore
SplineSet
242 740 m 261xf8
 336 542 l 261
 271 542 l 261
 150 740 l 261
 242 740 l 261xf8
116 218 m 257
 464 218 l 257
 464 274 l 257
 116 274 l 257
 116 218 l 257
374 159 m 257xfc
 375 131 364 109 349 93 c 256
 326 70 298 57 262 57 c 256
 157 57 122 138 122 234 c 256
 122 328 161 409 258 409 c 256
 330 409 382 355 378 271 c 257
 463 272 l 257xfa
 462 397 375 475 257 475 c 256
 129 475 40 373 40 227 c 256
 40 86 109 -9 248 -9 c 256
 315 -9 368 6 408 46 c 256
 434 71 458 108 455 148 c 257
 374 159 l 257xfc
EndSplineSet
Validated: 37
EndChar

StartChar: ecircumflex
Encoding: 234 234 106
GlifName: ecircumflex
Width: 504
VWidth: 0
Flags: W
HStem: -9 66<185.485 331.257> 272 2<378 463> 409 66<183.861 326.636>
VStem: 116 6<218 274> 374 81<97.9763 148> 378 85<271 356.453>
LayerCount: 2
Back
SplineSet
116 218 m 257
 464 218 l 257
 464 274 l 257
 116 274 l 257
 116 218 l 257
374 159 m 257
 375 131 364 109 349 93 c 256
 326 70 298 57 262 57 c 256
 157 57 122 138 122 234 c 256
 122 328 161 409 258 409 c 256
 330 409 382 355 378 271 c 257
 463 272 l 257
 462 397 375 475 257 475 c 256
 129 475 40 373 40 227 c 256
 40 86 109 -9 248 -9 c 256
 315 -9 368 6 408 46 c 256
 434 71 458 108 455 148 c 257
 374 159 l 257
EndSplineSet
Fore
SplineSet
227 750 m 261xf0
 75 542 l 261
 157 542 l 261
 258 669 l 261
 359 542 l 261
 441 542 l 261
 289 750 l 261
 227 750 l 261xf0
116 218 m 257
 464 218 l 257
 464 274 l 257
 116 274 l 257
 116 218 l 257
374 159 m 257xf8
 375 131 364 109 349 93 c 256
 326 70 298 57 262 57 c 256
 157 57 122 138 122 234 c 256
 122 328 161 409 258 409 c 256
 330 409 382 355 378 271 c 257
 463 272 l 257xf4
 462 397 375 475 257 475 c 256
 129 475 40 373 40 227 c 256
 40 86 109 -9 248 -9 c 256
 315 -9 368 6 408 46 c 256
 434 71 458 108 455 148 c 257
 374 159 l 257xf8
EndSplineSet
Validated: 37
EndChar

StartChar: asciicircum
Encoding: 94 94 107
GlifName: asciicircum
Width: 348
VWidth: 0
Flags: W
LayerCount: 2
Fore
SplineSet
145 750 m 257
 -7 542 l 257
 75 542 l 257
 176 669 l 257
 277 542 l 257
 359 542 l 257
 207 750 l 257
 145 750 l 257
EndSplineSet
Validated: 9
EndChar

StartChar: Eacute
Encoding: 201 201 108
GlifName: E_acute
Width: 575
VWidth: 0
Flags: W
HStem: 0 76<68 554> 342 77<68 478> 664 76<68 554>
VStem: 68 80<0 76 342 419 664 740>
LayerCount: 2
Fore
SplineSet
268 1010 m 257
 174 812 l 257
 239 812 l 257
 360 1010 l 257
 268 1010 l 257
68 740 m 257
 554 740 l 257
 554 664 l 257
 68 664 l 257
 68 740 l 257
68 419 m 257
 478 419 l 257
 478 342 l 257
 68 342 l 257
 68 419 l 257
56 740 m 257
 148 740 l 257
 148 0 l 257
 56 0 l 257
 56 740 l 257
68 76 m 257
 554 76 l 257
 554 0 l 257
 68 0 l 257
 68 76 l 257
EndSplineSet
Validated: 5
EndChar

StartChar: ae
Encoding: 230 230 109
GlifName: ae
Width: 708
VWidth: 0
UnlinkRmOvrlpSave: 1
Flags: HMW
LayerCount: 2
Fore
SplineSet
371.98828125 215 m 257
 371.98828125 271 l 257
 650.911132812 271 l 257
 650.911132812 215 l 257
 371.98828125 215 l 257
578.775390625 156 m 257
 643.696289062 145 l 257
 646.1015625 105 626.865234375 68 606.026367188 43 c 256
 573.965820312 3 531.487304688 -12 477.787109375 -12 c 256
 366.376953125 -12 311.07421875 83 311.07421875 224 c 256
 311.07421875 370 382.407226562 472 485 472 c 256
 579.576171875 472 649.307617188 394 650.108398438 269 c 257
 581.981445312 268 l 257
 585.1875 352 543.508789062 406 485.80078125 406 c 256
 408.055664062 406 376.796875 325 376.796875 231 c 256
 376.796875 135 404.849609375 54 489.006835938 54 c 256
 517.861328125 54 540.302734375 67 558.73828125 90 c 256
 570.760742188 106 579.576171875 128 578.775390625 156 c 257
299.639648438 297 m 257
 299.639648438 349 286.200195312 410 214.799804688 410 c 256
 120.719726562 410 120.719726562 346 129.120117188 318 c 257
 57.7197265625 324 l 257
 56.0390625 333 56.0390625 338 56.0390625 346 c 256
 56.0390625 427 135 475 213.9609375 475 c 256
 283.249023438 475 355.298828125 450.350585938 368.172851562 337 c 0
 369.501953125 325.301757812 370.200195312 312.658203125 370.200195312 299 c 257
 370.200195312 113 l 257
 370.200195312 74 376.919921875 51 413.879882812 56 c 257
 513 -5 l 257
 507.958984375 -7 489.48046875 -12 477.719726562 -12 c 256
 433.200195312 -12 315.321289062 72 312.799804688 106 c 257
 299.639648438 70 l 257
 299.639648438 297 l 257
311.400390625 85 m 257
 276.9609375 31 227.400390625 -10 167.760742188 -10 c 256
 95.51953125 -10 45.1201171875 39 45.1201171875 116 c 256
 45.1201171875 187 79.560546875 232 138.360351562 252 c 256
 161.0390625 260 190.439453125 262 218.16015625 263 c 257
 308.879882812 266 l 257
 308.879882812 209 l 257
 222.360351562 205 l 258
 171.9609375 202 120.719726562 184 120.719726562 122 c 256
 120.719726562 78 145.919921875 57 182.0390625 57 c 256
 225.719726562 57 283.680664062 97 308.879882812 171 c 257
 312.239257812 171 l 257
 311.400390625 85 l 257
EndSplineSet
EndChar

StartChar: agrave
Encoding: 224 224 110
GlifName: agrave
Width: 510
VWidth: 0
Flags: W
HStem: -10 67<144.232 269.416> -3 59<435.662 477> 205 58<162.204 352> 410 65<156.806 306.91> 720 20G<150 251.495>
VStem: 38 90<72.3641 172.764>
LayerCount: 2
Fore
SplineSet
242 740 m 261x3c
 336 542 l 261
 271 542 l 261
 150 740 l 261
 242 740 l 261x3c
341 297 m 257
 341 349 325 410 240 410 c 256
 128 410 128 346 138 318 c 257
 53 324 l 257
 51 333 51 338 51 346 c 256
 51 427 145 475 239 475 c 256
 330 475 425 445 425 299 c 257
 425 113 l 257
 425 74 433 51 477 56 c 257
 477 -3 l 257x7c
 471 -5 449 -10 435 -10 c 256xbc
 382 -10 354 32 351 66 c 257
 341 70 l 257
 341 297 l 257
355 85 m 257
 314 31 255 -10 184 -10 c 256
 98 -10 38 39 38 116 c 256
 38 187 79 232 149 252 c 256
 176 260 211 262 244 263 c 257
 352 266 l 257
 352 209 l 257
 249 205 l 258
 189 202 128 184 128 122 c 256
 128 78 158 57 201 57 c 256xbc
 253 57 322 97 352 171 c 257
 356 171 l 257
 355 85 l 257
EndSplineSet
Validated: 37
EndChar

StartChar: aacute
Encoding: 225 225 111
GlifName: aacute
Width: 510
VWidth: 0
Flags: W
HStem: -10 67<144.232 269.416> -3 59<435.662 477> 205 58<162.204 352> 410 65<156.806 306.91>
VStem: 38 90<72.3641 172.764>
LayerCount: 2
Fore
SplineSet
238 740 m 261x38
 144 542 l 261
 209 542 l 261
 330 740 l 261
 238 740 l 261x38
341 297 m 257
 341 349 325 410 240 410 c 256
 128 410 128 346 138 318 c 257
 53 324 l 257
 51 333 51 338 51 346 c 256
 51 427 145 475 239 475 c 256
 330 475 425 445 425 299 c 257
 425 113 l 257
 425 74 433 51 477 56 c 257
 477 -3 l 257x78
 471 -5 449 -10 435 -10 c 256xb8
 382 -10 354 32 351 66 c 257
 341 70 l 257
 341 297 l 257
355 85 m 257
 314 31 255 -10 184 -10 c 256
 98 -10 38 39 38 116 c 256
 38 187 79 232 149 252 c 256
 176 260 211 262 244 263 c 257
 352 266 l 257
 352 209 l 257
 249 205 l 258
 189 202 128 184 128 122 c 256
 128 78 158 57 201 57 c 256xb8
 253 57 322 97 352 171 c 257
 356 171 l 257
 355 85 l 257
EndSplineSet
Validated: 37
EndChar

StartChar: acircumflex
Encoding: 226 226 112
GlifName: acircumflex
Width: 510
VWidth: 0
Flags: W
HStem: -10 67<144.232 269.416> -3 59<435.662 477> 205 58<162.204 352> 410 65<156.806 306.91>
VStem: 38 90<72.3641 172.764>
LayerCount: 2
Fore
SplineSet
223 750 m 261x38
 71 542 l 261
 153 542 l 261
 254 669 l 261
 355 542 l 261
 437 542 l 261
 285 750 l 261
 223 750 l 261x38
341 297 m 257
 341 349 325 410 240 410 c 256
 128 410 128 346 138 318 c 257
 53 324 l 257
 51 333 51 338 51 346 c 256
 51 427 145 475 239 475 c 256
 330 475 425 445 425 299 c 257
 425 113 l 257
 425 74 433 51 477 56 c 257
 477 -3 l 257x78
 471 -5 449 -10 435 -10 c 256xb8
 382 -10 354 32 351 66 c 257
 341 70 l 257
 341 297 l 257
355 85 m 257
 314 31 255 -10 184 -10 c 256
 98 -10 38 39 38 116 c 256
 38 187 79 232 149 252 c 256
 176 260 211 262 244 263 c 257
 352 266 l 257
 352 209 l 257
 249 205 l 258
 189 202 128 184 128 122 c 256
 128 78 158 57 201 57 c 256xb8
 253 57 322 97 352 171 c 257
 356 171 l 257
 355 85 l 257
EndSplineSet
Validated: 37
EndChar

StartChar: atilde
Encoding: 227 227 113
GlifName: atilde
Width: 510
VWidth: 0
Flags: W
HStem: -10 67<144.232 269.416> -3 59<435.662 477> 205 58<162.204 352> 410 65<156.806 306.91> 560 72<275.644 358.642> 618 72<140.943 221.356>
VStem: 38 90<72.3641 172.764> 78 53<555 609.798> 366 53<640.202 695>
LayerCount: 2
Fore
SplineSet
131 555 m 257x3580
 131 579 138 618 179 618 c 256x3580
 212 618 245 560 303 560 c 256
 391 560 419 629 419 695 c 257
 366 695 l 257
 366 671 365 632 318 632 c 256x3980
 285 632 252 690 194 690 c 256
 106 690 78 621 78 555 c 257
 131 555 l 257x3580
341 297 m 257
 341 349 325 410 240 410 c 256
 128 410 128 346 138 318 c 257
 53 324 l 257
 51 333 51 338 51 346 c 256
 51 427 145 475 239 475 c 256
 330 475 425 445 425 299 c 257
 425 113 l 257
 425 74 433 51 477 56 c 257
 477 -3 l 257x7080
 471 -5 449 -10 435 -10 c 256xb080
 382 -10 354 32 351 66 c 257
 341 70 l 257
 341 297 l 257
355 85 m 257
 314 31 255 -10 184 -10 c 256
 98 -10 38 39 38 116 c 256
 38 187 79 232 149 252 c 256
 176 260 211 262 244 263 c 257
 352 266 l 257
 352 209 l 257
 249 205 l 258
 189 202 128 184 128 122 c 256
 128 78 158 57 201 57 c 256xb280
 253 57 322 97 352 171 c 257
 356 171 l 257
 355 85 l 257
EndSplineSet
Validated: 37
EndChar

StartChar: adieresis
Encoding: 228 228 114
GlifName: adieresis
Width: 510
VWidth: 0
Flags: W
HStem: -10 67<144.232 269.416> -3 59<435.662 477> 205 58<162.204 352> 410 65<156.806 306.91> 582 106<104.49 198.826 279.49 373.826>
VStem: 38 90<72.3641 172.764> 96 111<590.738 679.262> 271 111<590.738 679.262>
LayerCount: 2
Fore
SplineSet
96 635 m 260x3b
 96 602 117 582 152 582 c 260
 187 582 207 602 207 635 c 260
 207 668 187 688 152 688 c 260
 117 688 96 668 96 635 c 260x3b
271 635 m 260
 271 602 292 582 327 582 c 260
 362 582 382 602 382 635 c 260
 382 668 362 688 327 688 c 260
 292 688 271 668 271 635 c 260
341 297 m 257
 341 349 325 410 240 410 c 256
 128 410 128 346 138 318 c 257
 53 324 l 257
 51 333 51 338 51 346 c 256
 51 427 145 475 239 475 c 256
 330 475 425 445 425 299 c 257
 425 113 l 257
 425 74 433 51 477 56 c 257
 477 -3 l 257x79
 471 -5 449 -10 435 -10 c 256xb9
 382 -10 354 32 351 66 c 257
 341 70 l 257
 341 297 l 257
355 85 m 257
 314 31 255 -10 184 -10 c 256
 98 -10 38 39 38 116 c 256
 38 187 79 232 149 252 c 256
 176 260 211 262 244 263 c 257
 352 266 l 257
 352 209 l 257
 249 205 l 258
 189 202 128 184 128 122 c 256
 128 78 158 57 201 57 c 256xbd
 253 57 322 97 352 171 c 257
 356 171 l 257
 355 85 l 257
EndSplineSet
Validated: 37
EndChar

StartChar: aring
Encoding: 229 229 115
GlifName: aring
Width: 510
VWidth: 0
Flags: W
HStem: -10 67<144.232 269.416> -3 59<435.662 477> 205 58<162.204 352> 410 65<156.806 306.91> 539 16.5<220.057 263.259> 644.25 16.5<220.057 263.259>
VStem: 38 90<72.3641 172.764> 183.5 22.75<566.037 633.774> 276.75 23<565.389 634.325>
LayerCount: 2
Fore
SplineSet
183.5 597.25 m 261x3f80
 183.5 629 202.5 660.75 241.75 660.75 c 260
 280.5 660.75 299.75 631.5 299.75 599.75 c 260
 299.75 568.25 280.5 539 241.75 539 c 260
 202.5 539 183.5 568.25 183.5 597.25 c 261x3f80
206.25 599.75 m 261
 206.25 578.75 215.75 555.5 241.75 555.5 c 260
 267.75 555.5 276.75 578.75 276.75 599.75 c 260
 276.75 621 267.75 644.25 241.75 644.25 c 260
 215.75 644.25 206.25 621 206.25 599.75 c 261
341 297 m 257
 341 349 325 410 240 410 c 256
 128 410 128 346 138 318 c 257
 53 324 l 257
 51 333 51 338 51 346 c 256
 51 427 145 475 239 475 c 256
 330 475 425 445 425 299 c 257
 425 113 l 257
 425 74 433 51 477 56 c 257
 477 -3 l 257x7f80
 471 -5 449 -10 435 -10 c 256xbf80
 382 -10 354 32 351 66 c 257
 341 70 l 257
 341 297 l 257
355 85 m 257
 314 31 255 -10 184 -10 c 256
 98 -10 38 39 38 116 c 256
 38 187 79 232 149 252 c 256
 176 260 211 262 244 263 c 257
 352 266 l 257
 352 209 l 257
 249 205 l 258
 189 202 128 184 128 122 c 256
 128 78 158 57 201 57 c 256xbf80
 253 57 322 97 352 171 c 257
 356 171 l 257
 355 85 l 257
EndSplineSet
Validated: 524325
EndChar

StartChar: ccedilla
Encoding: 231 231 116
GlifName: ccedilla
Width: 493
VWidth: 0
Flags: W
HStem: -214 55<179.42 282.681> -9 20<219 276> 413 66<201.012 340.271>
VStem: 41 87<130.571 329.298> 286 76<-154.316 -90.7422> 383 83<101.653 168 313 371.52>
LayerCount: 2
Fore
SplineSet
219 11 m 261
 199 -79 l 261
 247 -74 286 -94 286 -125 c 260
 286 -150 262 -159 240 -159 c 260
 211 -159 185 -147 185 -147 c 261
 168 -196 l 261
 182 -203 208 -214 250 -214 c 260
 301 -214 362 -192 362 -126 c 260
 362 -72 319 -46 273 -35 c 261
 276 11 l 261
 219 11 l 261
383 179 m 257
 383 145 374 114 356 95 c 256
 332 71 302 58 267 58 c 256
 169 58 128 141 128 234 c 256
 128 325 181 413 268 413 c 256
 303 413 336 402 360 374 c 256
 375 358 386 332 384 302 c 257
 464 313 l 257
 470 362 442 406 409 434 c 256
 371 466 323 479 266 479 c 256
 135 479 41 373 41 227 c 256
 41 86 115 -9 253 -9 c 256
 310 -9 361 4 401 35 c 256
 438 65 471 114 466 168 c 257
 383 179 l 257
EndSplineSet
Validated: 37
EndChar

StartChar: edieresis
Encoding: 235 235 117
GlifName: edieresis
Width: 504
VWidth: 0
Flags: W
HStem: -9 66<185.485 331.257> 272 2<378 463> 409 66<183.861 326.636> 582 106<123.49 217.826 298.49 392.826>
VStem: 115 111<590.738 679.262> 116 6<218 274> 290 111<590.738 679.262> 374 81<97.9763 148> 378 85<271 356.453>
LayerCount: 2
Fore
SplineSet
115 635 m 260xf8
 115 602 136 582 171 582 c 260
 206 582 226 602 226 635 c 260
 226 668 206 688 171 688 c 260
 136 688 115 668 115 635 c 260xf8
290 635 m 260xf2
 290 602 311 582 346 582 c 260
 381 582 401 602 401 635 c 260
 401 668 381 688 346 688 c 260
 311 688 290 668 290 635 c 260xf2
116 218 m 257xf4
 464 218 l 257
 464 274 l 257
 116 274 l 257
 116 218 l 257xf4
374 159 m 257xf1
 375 131 364 109 349 93 c 256
 326 70 298 57 262 57 c 256
 157 57 122 138 122 234 c 256
 122 328 161 409 258 409 c 256
 330 409 382 355 378 271 c 257
 463 272 l 257xf480
 462 397 375 475 257 475 c 256
 129 475 40 373 40 227 c 256
 40 86 109 -9 248 -9 c 256
 315 -9 368 6 408 46 c 256
 434 71 458 108 455 148 c 257
 374 159 l 257xf1
EndSplineSet
Validated: 37
EndChar

StartChar: igrave
Encoding: 236 236 118
GlifName: igrave
Width: 235
VWidth: 0
Flags: W
HStem: 0 21G<75 157> 0 21G<75 157> 450 20G<75 157> 720 20G<21 122.495>
VStem: 75 82<0 470>
LayerCount: 2
Fore
SplineSet
113 740 m 261x38
 207 542 l 261
 142 542 l 261
 21 740 l 261
 113 740 l 261x38
75 470 m 257
 157 470 l 257
 157 0 l 257
 75 0 l 257xb8
 75 470 l 257
EndSplineSet
Validated: 1
EndChar

StartChar: iacute
Encoding: 237 237 119
GlifName: iacute
Width: 235
VWidth: 0
Flags: W
HStem: 0 21G<75 157> 0 21G<75 157> 450 20G<75 157>
VStem: 75 82<0 470>
LayerCount: 2
Fore
SplineSet
135 740 m 261x30
 41 542 l 261
 106 542 l 261
 227 740 l 261
 135 740 l 261x30
75 470 m 257
 157 470 l 257
 157 0 l 257
 75 0 l 257xb0
 75 470 l 257
EndSplineSet
Validated: 9
EndChar

StartChar: icircumflex
Encoding: 238 238 120
GlifName: icircumflex
Width: 235
VWidth: 0
Flags: W
HStem: 0 21G<75 157> 0 21G<75 157> 450 20G<75 157>
VStem: 75 82<0 470>
LayerCount: 2
Fore
SplineSet
84 750 m 257x30
 -68 542 l 257
 14 542 l 257
 115 669 l 257
 216 542 l 257
 298 542 l 257
 146 750 l 257
 84 750 l 257x30
75 470 m 257
 157 470 l 257
 157 0 l 257
 75 0 l 257xb0
 75 470 l 257
EndSplineSet
Validated: 9
EndChar

StartChar: idieresis
Encoding: 239 239 121
GlifName: idieresis
Width: 235
VWidth: 0
Flags: W
HStem: 0 21G<75 157> 0 21G<75 157> 450 20G<75 157> 602 106<-17.5098 76.8262 157.49 251.826>
VStem: -26 111<610.738 699.262> 75 82<0 470> 149 111<610.738 699.262>
LayerCount: 2
Fore
SplineSet
-26 655 m 256x38
 -26 622 -5 602 30 602 c 256
 65 602 85 622 85 655 c 256
 85 688 65 708 30 708 c 256
 -5 708 -26 688 -26 655 c 256x38
149 655 m 256x32
 149 622 170 602 205 602 c 256
 240 602 260 622 260 655 c 256
 260 688 240 708 205 708 c 256
 170 708 149 688 149 655 c 256x32
75 470 m 257xb4
 157 470 l 257
 157 0 l 257
 75 0 l 257
 75 470 l 257xb4
EndSplineSet
Validated: 9
EndChar

StartChar: ntilde
Encoding: 241 241 122
GlifName: ntilde
Width: 535
VWidth: 0
Flags: W
HStem: 398 77<223.753 354.476> 560 72<290.644 373.642> 618 72<155.943 236.356>
VStem: 93 53<555 609.798> 140 24<306 369> 381 53<640.202 695> 391 82<274 358.099>
LayerCount: 2
Fore
SplineSet
146 555 m 261xb4
 146 579 153 618 194 618 c 260xb4
 227 618 260 560 318 560 c 260
 406 560 434 629 434 695 c 261
 381 695 l 261
 381 671 380 632 333 632 c 260xd4
 300 632 267 690 209 690 c 260
 121 690 93 621 93 555 c 261
 146 555 l 261xb4
82 0 m 257
 164 0 l 257
 164 356 l 257x88
 156 360 l 257
 156 470 l 257
 82 470 l 257
 82 0 l 257
391 0 m 257x8a
 473 0 l 257
 473 292 l 258
 473 401 421 475 305 475 c 256
 211 475 138 397 140 306 c 257
 159 255 l 257
 164 255 l 257
 164 369 241 398 287 398 c 256
 347 398 391 365 391 274 c 258
 391 0 l 257x8a
EndSplineSet
Validated: 37
EndChar

StartChar: ograve
Encoding: 242 242 123
GlifName: ograve
Width: 545
VWidth: 0
Flags: W
HStem: -10 66<198.147 347.249> 411 66<198.147 347.249> 720 20G<150 251.495>
VStem: 40 91<132.785 333.285> 413 92<130.383 336.334>
LayerCount: 2
Fore
SplineSet
242 740 m 261
 336 542 l 261
 271 542 l 261
 150 740 l 261
 242 740 l 261
40 223 m 257
 40 350 116 477 273 477 c 256
 428 477 505 360 505 233 c 256
 505 107 428 -10 273 -10 c 256
 116 -10 40 107 40 223 c 257
131 233 m 257
 131 149 169 56 273 56 c 256
 377 56 413 149 413 233 c 256
 413 318 377 411 273 411 c 256
 169 411 131 318 131 233 c 257
EndSplineSet
Validated: 1
EndChar

StartChar: oacute
Encoding: 243 243 124
GlifName: oacute
Width: 545
VWidth: 0
Flags: W
HStem: -10 66<198.147 347.249> 411 66<198.147 347.249>
VStem: 40 91<132.785 333.285> 413 92<130.383 336.334>
LayerCount: 2
Fore
SplineSet
281 740 m 257
 187 542 l 257
 252 542 l 257
 373 740 l 257
 281 740 l 257
40 223 m 257
 40 350 116 477 273 477 c 256
 428 477 505 360 505 233 c 256
 505 107 428 -10 273 -10 c 256
 116 -10 40 107 40 223 c 257
131 233 m 257
 131 149 169 56 273 56 c 256
 377 56 413 149 413 233 c 256
 413 318 377 411 273 411 c 256
 169 411 131 318 131 233 c 257
EndSplineSet
Validated: 9
EndChar

StartChar: ocircumflex
Encoding: 244 244 125
GlifName: ocircumflex
Width: 545
VWidth: 0
Flags: W
HStem: -10 66<198.147 347.249> 411 66<198.147 347.249>
VStem: 40 91<132.785 333.285> 413 92<130.383 336.334>
LayerCount: 2
Fore
SplineSet
238 750 m 261
 86 542 l 261
 168 542 l 261
 269 669 l 261
 370 542 l 261
 452 542 l 261
 300 750 l 261
 238 750 l 261
40 223 m 257
 40 350 116 477 273 477 c 256
 428 477 505 360 505 233 c 256
 505 107 428 -10 273 -10 c 256
 116 -10 40 107 40 223 c 257
131 233 m 257
 131 149 169 56 273 56 c 256
 377 56 413 149 413 233 c 256
 413 318 377 411 273 411 c 256
 169 411 131 318 131 233 c 257
EndSplineSet
Validated: 9
EndChar

StartChar: otilde
Encoding: 245 245 126
GlifName: otilde
Width: 545
VWidth: 0
Flags: W
HStem: -10 66<198.147 347.249> 411 66<198.147 347.249> 560 72<290.644 373.642> 618 72<155.943 236.356>
VStem: 40 91<132.785 333.285> 93 53<555 609.798> 381 53<640.202 695> 413 92<130.383 336.334>
LayerCount: 2
Fore
SplineSet
146 555 m 261xd6
 146 579 153 618 194 618 c 260xd6
 227 618 260 560 318 560 c 260
 406 560 434 629 434 695 c 261
 381 695 l 261
 381 671 380 632 333 632 c 260xe6
 300 632 267 690 209 690 c 260
 121 690 93 621 93 555 c 261
 146 555 l 261xd6
40 223 m 257xc9
 40 350 116 477 273 477 c 256
 428 477 505 360 505 233 c 256
 505 107 428 -10 273 -10 c 256
 116 -10 40 107 40 223 c 257xc9
131 233 m 257
 131 149 169 56 273 56 c 256
 377 56 413 149 413 233 c 256
 413 318 377 411 273 411 c 256
 169 411 131 318 131 233 c 257
EndSplineSet
Validated: 9
EndChar

StartChar: odieresis
Encoding: 246 246 127
GlifName: odieresis
Width: 545
VWidth: 0
Flags: W
HStem: -10 66<198.147 347.249> 411 66<198.147 347.249> 582 106<141.49 235.826 316.49 410.826>
VStem: 40 91<132.785 333.285> 133 111<590.738 679.262> 308 111<590.738 679.262> 413 92<130.383 336.334>
LayerCount: 2
Fore
SplineSet
133 635 m 260xf8
 133 602 154 582 189 582 c 260
 224 582 244 602 244 635 c 260
 244 668 224 688 189 688 c 260
 154 688 133 668 133 635 c 260xf8
308 635 m 260xfc
 308 602 329 582 364 582 c 260
 399 582 419 602 419 635 c 260
 419 668 399 688 364 688 c 260
 329 688 308 668 308 635 c 260xfc
40 223 m 257
 40 350 116 477 273 477 c 256
 428 477 505 360 505 233 c 256xfa
 505 107 428 -10 273 -10 c 256
 116 -10 40 107 40 223 c 257
131 233 m 257
 131 149 169 56 273 56 c 256
 377 56 413 149 413 233 c 256
 413 318 377 411 273 411 c 256
 169 411 131 318 131 233 c 257
EndSplineSet
Validated: 9
EndChar

StartChar: oslash
Encoding: 248 248 128
GlifName: oslash
Width: 545
VWidth: 0
Flags: W
HStem: -10 66<183.726 347.249> 411 66<198.147 361.562>
VStem: 40 91<127.759 333.285> 413 92<130.383 338.966>
LayerCount: 2
Fore
SplineSet
99 -10 m 257
 40.310546875 48.6904296875 l 257
 446.310546875 477.689453125 l 257
 505 419 l 257
 99 -10 l 257
40 223 m 257
 40 350 116 477 273 477 c 256
 428 477 505 360 505 233 c 256
 505 107 428 -10 273 -10 c 256
 116 -10 40 107 40 223 c 257
131 233 m 257
 131 149 169 56 273 56 c 256
 377 56 413 149 413 233 c 256
 413 318 377 411 273 411 c 256
 169 411 131 318 131 233 c 257
EndSplineSet
Validated: 524293
EndChar

StartChar: ugrave
Encoding: 249 249 129
GlifName: ugrave
Width: 508
VWidth: 0
Flags: W
HStem: -10 77<167.279 299.247> 720 20G<150 251.495>
VStem: 50 82<102.774 191> 359 24<96 159>
LayerCount: 2
Fore
SplineSet
242 740 m 261
 336 542 l 261
 271 542 l 261
 150 740 l 261
 242 740 l 261
441 470 m 257
 359 470 l 257
 359 109 l 257
 367 105 l 257
 367 0 l 257
 441 0 l 257
 441 470 l 257
132 470 m 257
 50 470 l 257
 50 173 l 258
 50 64 102 -10 218 -10 c 256
 312 -10 385 68 383 159 c 257
 364 210 l 257
 359 210 l 257
 359 96 282 67 236 67 c 256
 170 67 132 100 132 191 c 258
 132 470 l 257
EndSplineSet
Validated: 37
EndChar

StartChar: uacute
Encoding: 250 250 130
GlifName: uacute
Width: 508
VWidth: 0
Flags: W
HStem: -10 77<167.279 299.247>
VStem: 50 82<102.774 191> 359 24<96 159>
LayerCount: 2
Fore
SplineSet
286 740 m 261
 192 542 l 261
 257 542 l 261
 378 740 l 261
 286 740 l 261
441 470 m 257
 359 470 l 257
 359 109 l 257
 367 105 l 257
 367 0 l 257
 441 0 l 257
 441 470 l 257
132 470 m 257
 50 470 l 257
 50 173 l 258
 50 64 102 -10 218 -10 c 256
 312 -10 385 68 383 159 c 257
 364 210 l 257
 359 210 l 257
 359 96 282 67 236 67 c 256
 170 67 132 100 132 191 c 258
 132 470 l 257
EndSplineSet
Validated: 37
EndChar

StartChar: ucircumflex
Encoding: 251 251 131
GlifName: ucircumflex
Width: 508
VWidth: 0
Flags: W
HStem: -10 77<167.279 299.247>
VStem: 50 82<102.774 191> 359 24<96 159>
LayerCount: 2
Fore
SplineSet
215 750 m 257
 63 542 l 257
 145 542 l 257
 246 669 l 257
 347 542 l 257
 429 542 l 257
 277 750 l 257
 215 750 l 257
441 470 m 257
 359 470 l 257
 359 109 l 257
 367 105 l 257
 367 0 l 257
 441 0 l 257
 441 470 l 257
132 470 m 257
 50 470 l 257
 50 173 l 258
 50 64 102 -10 218 -10 c 256
 312 -10 385 68 383 159 c 257
 364 210 l 257
 359 210 l 257
 359 96 282 67 236 67 c 256
 170 67 132 100 132 191 c 258
 132 470 l 257
EndSplineSet
Validated: 37
EndChar

StartChar: udieresis
Encoding: 252 252 132
GlifName: udieresis
Width: 508
VWidth: 0
Flags: W
HStem: -10 77<167.279 299.247> 582 106<112.49 206.826 287.49 381.826>
VStem: 50 82<102.774 191> 104 111<590.738 679.262> 279 111<590.738 679.262> 359 24<96 159>
LayerCount: 2
Fore
SplineSet
104 635 m 260xd0
 104 602 125 582 160 582 c 260
 195 582 215 602 215 635 c 260
 215 668 195 688 160 688 c 260
 125 688 104 668 104 635 c 260xd0
279 635 m 260xc8
 279 602 300 582 335 582 c 260
 370 582 390 602 390 635 c 260
 390 668 370 688 335 688 c 260
 300 688 279 668 279 635 c 260xc8
441 470 m 257
 359 470 l 257
 359 109 l 257xc4
 367 105 l 257
 367 0 l 257
 441 0 l 257
 441 470 l 257
132 470 m 257xe4
 50 470 l 257
 50 173 l 258
 50 64 102 -10 218 -10 c 256
 312 -10 385 68 383 159 c 257
 364 210 l 257
 359 210 l 257
 359 96 282 67 236 67 c 256
 170 67 132 100 132 191 c 258
 132 470 l 257xe4
EndSplineSet
Validated: 37
EndChar

StartChar: yacute
Encoding: 253 253 133
GlifName: yacute
Width: 485
VWidth: 0
Flags: W
HStem: -245 89<16.8348 127.625>
LayerCount: 2
Fore
SplineSet
247 740 m 261
 153 542 l 261
 218 542 l 261
 339 740 l 261
 247 740 l 261
3 -224 m 257
 17 -240 44 -245 74 -245 c 256
 118 -245 191 -223 233 -111 c 258
 361 230 l 257
 279 230 l 257
 168 -63 l 258
 137 -141 113 -156 73 -156 c 256
 51 -156 33 -150 20 -139 c 257
 3 -224 l 257
452 470 m 257
 368 470 l 257
 237 122 l 257
 211 -2 l 257
 274 -2 l 257
 452 470 l 257
195 -2 m 257
 259 -2 l 257
 232 122 l 257
 101 470 l 257
 15 470 l 257
 195 -2 l 257
EndSplineSet
Validated: 5
EndChar

StartChar: ydieresis
Encoding: 255 255 134
GlifName: ydieresis
Width: 485
VWidth: 0
Flags: W
HStem: -245 89<16.8348 127.625> 582 106<99.4902 193.826 274.49 368.826>
VStem: 91 111<590.738 679.262> 266 111<590.738 679.262>
LayerCount: 2
Fore
SplineSet
91 635 m 260
 91 602 112 582 147 582 c 260
 182 582 202 602 202 635 c 260
 202 668 182 688 147 688 c 260
 112 688 91 668 91 635 c 260
266 635 m 260
 266 602 287 582 322 582 c 260
 357 582 377 602 377 635 c 260
 377 668 357 688 322 688 c 260
 287 688 266 668 266 635 c 260
3 -224 m 257
 17 -240 44 -245 74 -245 c 256
 118 -245 191 -223 233 -111 c 258
 361 230 l 257
 279 230 l 257
 168 -63 l 258
 137 -141 113 -156 73 -156 c 256
 51 -156 33 -150 20 -139 c 257
 3 -224 l 257
452 470 m 257
 368 470 l 257
 237 122 l 257
 211 -2 l 257
 274 -2 l 257
 452 470 l 257
195 -2 m 257
 259 -2 l 257
 232 122 l 257
 101 470 l 257
 15 470 l 257
 195 -2 l 257
EndSplineSet
Validated: 5
EndChar

StartChar: Agrave
Encoding: 192 192 135
GlifName: A_grave
Width: 683
VWidth: 0
Flags: W
LayerCount: 2
Fore
SplineSet
350 1006 m 261
 444 808 l 261
 379 808 l 261
 258 1006 l 261
 350 1006 l 261
24 0 m 257
 119 0 l 257
 193 211 279 446 353 658 c 257
 353 740 l 257
 296 740 l 257
 24 0 l 257
183 225 m 257
 515 225 l 257
 515 297 l 257
 183 297 l 257
 183 225 l 257
397 740 m 257
 342 740 l 257
 342 659 l 257
 416 446 504 213 577 0 c 257
 671 0 l 257
 397 740 l 257
EndSplineSet
Validated: 5
EndChar

StartChar: Aacute
Encoding: 193 193 136
GlifName: A_acute
Width: 683
VWidth: 0
Flags: W
LayerCount: 2
Fore
SplineSet
342 1006 m 261
 248 808 l 261
 313 808 l 261
 434 1006 l 261
 342 1006 l 261
24 0 m 257
 119 0 l 257
 193 211 279 446 353 658 c 257
 353 740 l 257
 296 740 l 257
 24 0 l 257
183 225 m 257
 515 225 l 257
 515 297 l 257
 183 297 l 257
 183 225 l 257
397 740 m 257
 342 740 l 257
 342 659 l 257
 416 446 504 213 577 0 c 257
 671 0 l 257
 397 740 l 257
EndSplineSet
Validated: 5
EndChar

StartChar: Acircumflex
Encoding: 194 194 137
GlifName: A_circumflex
Width: 683
VWidth: 0
Flags: W
LayerCount: 2
Fore
SplineSet
319 1025 m 261
 167 817 l 261
 249 817 l 261
 350 944 l 261
 451 817 l 261
 533 817 l 261
 381 1025 l 261
 319 1025 l 261
24 0 m 257
 119 0 l 257
 193 211 279 446 353 658 c 257
 353 740 l 257
 296 740 l 257
 24 0 l 257
183 225 m 257
 515 225 l 257
 515 297 l 257
 183 297 l 257
 183 225 l 257
397 740 m 257
 342 740 l 257
 342 659 l 257
 416 446 504 213 577 0 c 257
 671 0 l 257
 397 740 l 257
EndSplineSet
Validated: 5
EndChar

StartChar: Atilde
Encoding: 195 195 138
GlifName: A_tilde
Width: 683
VWidth: 0
Flags: W
HStem: 822 72<381.644 464.642> 880 72<246.943 327.356>
VStem: 184 53<817 871.798> 472 53<902.202 957>
LayerCount: 2
Fore
SplineSet
237 817 m 257x70
 237 841 244 880 285 880 c 256x70
 318 880 351 822 409 822 c 256
 497 822 525 891 525 957 c 257
 472 957 l 257
 472 933 471 894 424 894 c 256xb0
 391 894 358 952 300 952 c 256
 212 952 184 883 184 817 c 257
 237 817 l 257x70
24 0 m 257
 119 0 l 257
 193 211 279 446 353 658 c 257
 353 740 l 257
 296 740 l 257
 24 0 l 257
183 225 m 257
 515 225 l 257
 515 297 l 257
 183 297 l 257
 183 225 l 257
397 740 m 257
 342 740 l 257
 342 659 l 257
 416 446 504 213 577 0 c 257
 671 0 l 257
 397 740 l 257
EndSplineSet
Validated: 5
EndChar

StartChar: Adieresis
Encoding: 196 196 139
GlifName: A_dieresis
Width: 683
VWidth: 0
Flags: W
LayerCount: 2
Fore
SplineSet
24 0 m 257
 119 0 l 257
 193 211 279 446 353 658 c 257
 353 740 l 257
 296 740 l 257
 24 0 l 257
183 225 m 257
 515 225 l 257
 515 297 l 257
 183 297 l 257
 183 225 l 257
397 740 m 257
 342 740 l 257
 342 659 l 257
 416 446 504 213 577 0 c 257
 671 0 l 257
 397 740 l 257
EndSplineSet
Validated: 5
EndChar

StartChar: Aring
Encoding: 197 197 140
GlifName: A_ring
Width: 683
VWidth: 0
Flags: W
HStem: 799 16.5<323.057 366.259> 904.25 16.5<323.057 366.259>
VStem: 286.5 22.75<826.037 893.774> 379.75 23<825.389 894.325>
LayerCount: 2
Fore
SplineSet
286.5 857.25 m 257
 286.5 889 305.5 920.75 344.75 920.75 c 256
 383.5 920.75 402.75 891.5 402.75 859.75 c 256
 402.75 828.25 383.5 799 344.75 799 c 256
 305.5 799 286.5 828.25 286.5 857.25 c 257
309.25 859.75 m 257
 309.25 838.75 318.75 815.5 344.75 815.5 c 256
 370.75 815.5 379.75 838.75 379.75 859.75 c 256
 379.75 881 370.75 904.25 344.75 904.25 c 256
 318.75 904.25 309.25 881 309.25 859.75 c 257
24 0 m 257
 119 0 l 257
 193 211 279 446 353 658 c 257
 353 740 l 257
 296 740 l 257
 24 0 l 257
183 225 m 257
 515 225 l 257
 515 297 l 257
 183 297 l 257
 183 225 l 257
397 740 m 257
 342 740 l 257
 342 659 l 257
 416 446 504 213 577 0 c 257
 671 0 l 257
 397 740 l 257
EndSplineSet
Validated: 524293
EndChar

StartChar: AE
Encoding: 198 198 141
GlifName: A_E_
Width: 683
VWidth: 0
Flags: W
LayerCount: 2
Fore
SplineSet
24 0 m 257
 119 0 l 257
 193 211 279 446 353 658 c 257
 353 740 l 257
 296 740 l 257
 24 0 l 257
183 225 m 257
 515 225 l 257
 515 297 l 257
 183 297 l 257
 183 225 l 257
397 740 m 257
 342 740 l 257
 342 659 l 257
 416 446 504 213 577 0 c 257
 671 0 l 257
 397 740 l 257
EndSplineSet
Validated: 5
EndChar

StartChar: Ccedilla
Encoding: 199 199 142
GlifName: C_cedilla
Width: 772
VWidth: 0
Flags: W
HStem: -214 55<338.42 441.681> -11 22<378 435> 673 77<314.784 515.267>
VStem: 56 103<241.514 498.122> 445 76<-154.316 -90.7422> 629 97<478.781 560.423> 638 97<184.594 258.794>
LayerCount: 2
Fore
SplineSet
378 11 m 261xf8
 358 -79 l 261
 406 -74 445 -94 445 -125 c 260
 445 -150 421 -159 399 -159 c 260
 370 -159 344 -147 344 -147 c 261
 327 -196 l 261
 341 -203 367 -214 409 -214 c 260
 460 -214 521 -192 521 -126 c 260
 521 -72 478 -46 432 -35 c 261
 435 11 l 261
 378 11 l 261xf8
735 258 m 257xfa
 638 269 l 257xfa
 628 136 538 71 418 71 c 256
 258 71 159 188 159 370 c 256
 159 542 256 673 418 673 c 256
 530 673 625 598 629 471 c 257
 666 475 l 257
 670 475 674 476 678 476 c 256
 694 477 710 480 726 481 c 257xfc
 724 560 696 625 649 669 c 256
 595 720 512 750 420 750 c 256
 202 750 56 589 56 360 c 256
 56 138 184 -11 411 -11 c 256
 492 -11 574 13 634 61 c 256
 691 106 730 175 735 258 c 257xfa
EndSplineSet
Validated: 37
EndChar

StartChar: Egrave
Encoding: 200 200 143
GlifName: E_grave
Width: 575
VWidth: 0
Flags: W
HStem: 0 76<68 554> 342 77<68 478> 664 76<68 554>
VStem: 68 80<0 76 342 419 664 740>
LayerCount: 2
Fore
SplineSet
295 1006 m 261
 389 808 l 261
 324 808 l 261
 203 1006 l 261
 295 1006 l 261
68 740 m 257
 554 740 l 257
 554 664 l 257
 68 664 l 257
 68 740 l 257
68 419 m 257
 478 419 l 257
 478 342 l 257
 68 342 l 257
 68 419 l 257
56 740 m 257
 148 740 l 257
 148 0 l 257
 56 0 l 257
 56 740 l 257
68 76 m 257
 554 76 l 257
 554 0 l 257
 68 0 l 257
 68 76 l 257
EndSplineSet
Validated: 5
EndChar

StartChar: Ecircumflex
Encoding: 202 202 144
GlifName: E_circumflex
Width: 575
VWidth: 0
Flags: W
HStem: 0 76<68 554> 342 77<68 478> 664 76<68 554>
VStem: 68 80<0 76 342 419 664 740>
LayerCount: 2
Fore
SplineSet
282 1025 m 261
 130 817 l 261
 212 817 l 261
 313 944 l 261
 414 817 l 261
 496 817 l 261
 344 1025 l 261
 282 1025 l 261
68 740 m 257
 554 740 l 257
 554 664 l 257
 68 664 l 257
 68 740 l 257
68 419 m 257
 478 419 l 257
 478 342 l 257
 68 342 l 257
 68 419 l 257
56 740 m 257
 148 740 l 257
 148 0 l 257
 56 0 l 257
 56 740 l 257
68 76 m 257
 554 76 l 257
 554 0 l 257
 68 0 l 257
 68 76 l 257
EndSplineSet
Validated: 5
EndChar

StartChar: Edieresis
Encoding: 203 203 145
GlifName: E_dieresis
Width: 575
VWidth: 0
Flags: W
HStem: 0 76<68 554> 342 77<68 478> 664 76<68 554>
VStem: 68 80<0 76 342 419 664 740>
LayerCount: 2
Fore
SplineSet
68 740 m 257
 554 740 l 257
 554 664 l 257
 68 664 l 257
 68 740 l 257
68 419 m 257
 478 419 l 257
 478 342 l 257
 68 342 l 257
 68 419 l 257
56 740 m 257
 148 740 l 257
 148 0 l 257
 56 0 l 257
 56 740 l 257
68 76 m 257
 554 76 l 257
 554 0 l 257
 68 0 l 257
 68 76 l 257
EndSplineSet
Validated: 5
EndChar

StartChar: Igrave
Encoding: 204 204 146
GlifName: I_grave
Width: 322
VWidth: 0
Flags: W
HStem: 0 21G<112 204> 0 21G<112 204> 720 20G<112 204>
VStem: 112 92<0 740>
LayerCount: 2
Fore
SplineSet
148 1006 m 261x30
 242 808 l 261
 177 808 l 261
 56 1006 l 261
 148 1006 l 261x30
112 740 m 257
 204 740 l 257
 204 0 l 257
 112 0 l 257xb0
 112 740 l 257
EndSplineSet
Validated: 1
EndChar

StartChar: Iacute
Encoding: 205 205 147
GlifName: I_acute
Width: 322
VWidth: 0
Flags: W
HStem: 0 21G<112 204> 0 21G<112 204> 720 20G<112 204>
VStem: 112 92<0 740>
LayerCount: 2
Fore
SplineSet
159 1006 m 261x30
 65 808 l 261
 130 808 l 261
 251 1006 l 261
 159 1006 l 261x30
112 740 m 257
 204 740 l 257
 204 0 l 257
 112 0 l 257xb0
 112 740 l 257
EndSplineSet
Validated: 9
EndChar

StartChar: Icircumflex
Encoding: 206 206 148
GlifName: I_circumflex
Width: 322
VWidth: 0
Flags: W
HStem: 0 21G<112 204> 0 21G<112 204> 720 20G<112 204>
VStem: 112 92<0 740>
LayerCount: 2
Fore
SplineSet
130 1025 m 261x30
 -22 817 l 261
 60 817 l 261
 161 944 l 261
 262 817 l 261
 344 817 l 261
 192 1025 l 261
 130 1025 l 261x30
112 740 m 257
 204 740 l 257
 204 0 l 257
 112 0 l 257xb0
 112 740 l 257
EndSplineSet
Validated: 9
EndChar

StartChar: Idieresis
Encoding: 207 207 149
GlifName: I_dieresis
Width: 322
VWidth: 0
Flags: W
HStem: 0 21G<112 204> 0 21G<112 204> 720 20G<112 204>
VStem: 112 92<0 740>
LayerCount: 2
Fore
SplineSet
112 740 m 257xb0
 204 740 l 257
 204 0 l 257
 112 0 l 257
 112 740 l 257xb0
EndSplineSet
Validated: 1
EndChar

StartChar: Eth
Encoding: 208 208 150
GlifName: E_th
Width: 771
VWidth: 0
Flags: W
HStem: 0 78<200 481.234> 375 63<45 357> 662 78<200 481.234>
VStem: 200 43<0 78 662 740> 634 94<244.536 495.464>
LayerCount: 2
Fore
SplineSet
357 375 m 257
 45 375 l 257
 45 438 l 257
 357 438 l 257
 357 375 l 257
200 78 m 257
 352 78 l 257
 436 78 490 97 532 126 c 257
 596 177 634 269 634 370 c 256
 634 471 596 563 532 614 c 257
 490 643 436 662 352 662 c 257
 200 662 l 257
 200 740 l 257
 377 740 l 257
 439 740 522 721 575 691 c 257
 663 627 728 503 728 370 c 256
 728 237 663 113 575 49 c 257
 522 19 439 0 377 0 c 257
 200 0 l 257
 200 78 l 257
151 740 m 257
 243 740 l 257
 243 0 l 257
 151 0 l 257
 151 740 l 257
EndSplineSet
Validated: 5
EndChar

StartChar: Ntilde
Encoding: 209 209 151
GlifName: N_tilde
Width: 780
VWidth: 0
Flags: W
HStem: 0 21G<101 193 564.356 683> 0 21G<101 193 564.356 683> 720 20G<101 279 591 683> 822 72<424.644 507.642> 880 72<289.943 370.356>
VStem: 101 92<0 658> 161 32<658 740> 227 53<817 871.798> 515 53<902.202 957> 591 92<77 740> 591 39<0 77>
LayerCount: 2
Fore
SplineSet
280 817 m 257x2980
 280 841 287 880 328 880 c 256x2980
 361 880 394 822 452 822 c 256
 540 822 568 891 568 957 c 257
 515 957 l 257
 515 933 514 894 467 894 c 256x3180
 434 894 401 952 343 952 c 256
 255 952 227 883 227 817 c 257
 280 817 l 257x2980
101 740 m 257xa580
 193 740 l 257xa380
 193 0 l 257
 101 0 l 257
 101 740 l 257xa580
577 0 m 257
 161 658 l 257
 161 740 l 257
 213 740 l 257
 345 530 499 288 630 77 c 257
 630 0 l 257xa3a0
 577 0 l 257
591 740 m 257xa1c0
 683 740 l 257
 683 0 l 257xa1c0
 591 0 l 257xa1a0
 591 740 l 257xa1c0
EndSplineSet
Validated: 5
EndChar

StartChar: Ograve
Encoding: 210 210 152
GlifName: O_grave
Width: 810
VWidth: 0
Flags: W
HStem: -10 82<293.141 521.697> 668 82<292.257 522.811>
VStem: 37 100<240.091 500.399> 679 98<243.414 497.101>
LayerCount: 2
Fore
SplineSet
380 1006 m 261
 474 808 l 261
 409 808 l 261
 288 1006 l 261
 380 1006 l 261
404 668 m 256
 584 668 679 545 679 371 c 256
 679 195 584 72 404 72 c 256
 230 72 137 195 137 371 c 256
 137 545 230 668 404 668 c 256
404 750 m 256
 179 750 37 591 37 371 c 256
 37 147 184 -10 404 -10 c 256
 625 -10 777 147 777 371 c 256
 777 591 631 750 404 750 c 256
EndSplineSet
Validated: 9
EndChar

StartChar: Oacute
Encoding: 211 211 153
GlifName: O_acute
Width: 810
VWidth: 0
Flags: W
HStem: -10 82<293.141 521.697> 668 82<292.257 522.811>
VStem: 37 100<240.091 500.399> 679 98<243.414 497.101>
LayerCount: 2
Fore
SplineSet
392 1006 m 261
 298 808 l 261
 363 808 l 261
 484 1006 l 261
 392 1006 l 261
404 668 m 256
 584 668 679 545 679 371 c 256
 679 195 584 72 404 72 c 256
 230 72 137 195 137 371 c 256
 137 545 230 668 404 668 c 256
404 750 m 256
 179 750 37 591 37 371 c 256
 37 147 184 -10 404 -10 c 256
 625 -10 777 147 777 371 c 256
 777 591 631 750 404 750 c 256
EndSplineSet
Validated: 9
EndChar

StartChar: Ocircumflex
Encoding: 212 212 154
GlifName: O_circumflex
Width: 810
VWidth: 0
Flags: W
HStem: -10 82<293.141 521.697> 668 82<292.257 522.811>
VStem: 37 100<240.091 500.399> 679 98<243.414 497.101>
LayerCount: 2
Fore
SplineSet
372 1025 m 261
 220 817 l 261
 302 817 l 261
 403 944 l 261
 504 817 l 261
 586 817 l 261
 434 1025 l 261
 372 1025 l 261
404 668 m 256
 584 668 679 545 679 371 c 256
 679 195 584 72 404 72 c 256
 230 72 137 195 137 371 c 256
 137 545 230 668 404 668 c 256
404 750 m 256
 179 750 37 591 37 371 c 256
 37 147 184 -10 404 -10 c 256
 625 -10 777 147 777 371 c 256
 777 591 631 750 404 750 c 256
EndSplineSet
Validated: 9
EndChar

StartChar: Otilde
Encoding: 213 213 155
GlifName: O_tilde
Width: 810
VWidth: 0
Flags: W
HStem: -10 82<293.141 521.697> 668 82<292.257 522.811> 822 72<424.644 507.642> 880 72<289.943 370.356>
VStem: 37 100<240.091 500.399> 227 53<817 871.798> 515 53<902.202 957> 679 98<243.414 497.101>
LayerCount: 2
Fore
SplineSet
280 817 m 261xdf
 280 841 287 880 328 880 c 260xdf
 361 880 394 822 452 822 c 260
 540 822 568 891 568 957 c 261
 515 957 l 261
 515 933 514 894 467 894 c 260xef
 434 894 401 952 343 952 c 260
 255 952 227 883 227 817 c 261
 280 817 l 261xdf
404 668 m 256
 584 668 679 545 679 371 c 256
 679 195 584 72 404 72 c 256
 230 72 137 195 137 371 c 256
 137 545 230 668 404 668 c 256
404 750 m 256
 179 750 37 591 37 371 c 256
 37 147 184 -10 404 -10 c 256
 625 -10 777 147 777 371 c 256
 777 591 631 750 404 750 c 256
EndSplineSet
Validated: 9
EndChar

StartChar: Odieresis
Encoding: 214 214 156
GlifName: O_dieresis
Width: 810
VWidth: 0
Flags: W
HStem: -10 82<293.141 521.697> 668 82<292.257 522.811>
VStem: 37 100<240.091 500.399> 679 98<243.414 497.101>
LayerCount: 2
Fore
SplineSet
404 668 m 256
 584 668 679 545 679 371 c 256
 679 195 584 72 404 72 c 256
 230 72 137 195 137 371 c 256
 137 545 230 668 404 668 c 256
404 750 m 256
 179 750 37 591 37 371 c 256
 37 147 184 -10 404 -10 c 256
 625 -10 777 147 777 371 c 256
 777 591 631 750 404 750 c 256
EndSplineSet
Validated: 9
EndChar

StartChar: Oslash
Encoding: 216 216 157
GlifName: O_slash
Width: 810
VWidth: 0
Flags: W
HStem: -10 82<293.141 521.697> 668 82<292.257 522.811>
VStem: 37 100<240.091 500.399> 679 98<243.414 497.101>
LayerCount: 2
Fore
SplineSet
404 668 m 256
 584 668 679 545 679 371 c 256
 679 195 584 72 404 72 c 256
 230 72 137 195 137 371 c 256
 137 545 230 668 404 668 c 256
404 750 m 256
 179 750 37 591 37 371 c 256
 37 147 184 -10 404 -10 c 256
 625 -10 777 147 777 371 c 256
 777 591 631 750 404 750 c 256
EndSplineSet
Validated: 9
EndChar

StartChar: Ugrave
Encoding: 217 217 158
GlifName: U_grave
Width: 751
VWidth: 0
Flags: W
HStem: -10 84<270.349 486.054>
VStem: 73 91<180.688 291> 593 92<180.688 291>
LayerCount: 2
Fore
SplineSet
380 1006 m 257
 474 808 l 257
 409 808 l 257
 288 1006 l 257
 380 1006 l 257
378 -10 m 256
 608 -10 685 141 685 291 c 257
 685 740 l 257
 593 740 l 257
 593 291 l 257
 593 119 485 74 378 74 c 256
 271 74 164 119 164 291 c 257
 164 740 l 257
 73 740 l 257
 73 291 l 257
 73 141 149 -10 378 -10 c 256
EndSplineSet
Validated: 9
EndChar

StartChar: Uacute
Encoding: 218 218 159
GlifName: U_acute
Width: 751
VWidth: 0
Flags: W
HStem: -10 84<270.349 486.054>
VStem: 73 91<180.688 291> 593 92<180.688 291>
LayerCount: 2
Fore
SplineSet
392 1006 m 261
 298 808 l 261
 363 808 l 261
 484 1006 l 261
 392 1006 l 261
378 -10 m 256
 608 -10 685 141 685 291 c 257
 685 740 l 257
 593 740 l 257
 593 291 l 257
 593 119 485 74 378 74 c 256
 271 74 164 119 164 291 c 257
 164 740 l 257
 73 740 l 257
 73 291 l 257
 73 141 149 -10 378 -10 c 256
EndSplineSet
Validated: 9
EndChar

StartChar: Ucircumflex
Encoding: 219 219 160
GlifName: U_circumflex
Width: 751
VWidth: 0
Flags: W
HStem: -10 84<270.349 486.054>
VStem: 73 91<180.688 291> 593 92<180.688 291>
LayerCount: 2
Fore
SplineSet
341 1025 m 261
 189 817 l 261
 271 817 l 261
 372 944 l 261
 473 817 l 261
 555 817 l 261
 403 1025 l 261
 341 1025 l 261
378 -10 m 256
 608 -10 685 141 685 291 c 257
 685 740 l 257
 593 740 l 257
 593 291 l 257
 593 119 485 74 378 74 c 256
 271 74 164 119 164 291 c 257
 164 740 l 257
 73 740 l 257
 73 291 l 257
 73 141 149 -10 378 -10 c 256
EndSplineSet
Validated: 9
EndChar

StartChar: Udieresis
Encoding: 220 220 161
GlifName: U_dieresis
Width: 751
VWidth: 0
Flags: W
HStem: -10 84<270.349 486.054>
VStem: 73 91<180.688 291> 593 92<180.688 291>
LayerCount: 2
Fore
SplineSet
378 -10 m 256
 608 -10 685 141 685 291 c 257
 685 740 l 257
 593 740 l 257
 593 291 l 257
 593 119 485 74 378 74 c 256
 271 74 164 119 164 291 c 257
 164 740 l 257
 73 740 l 257
 73 291 l 257
 73 141 149 -10 378 -10 c 256
EndSplineSet
Validated: 9
EndChar

StartChar: Yacute
Encoding: 221 221 162
GlifName: Y_acute
Width: 702
VWidth: 0
Flags: W
LayerCount: 2
Fore
SplineSet
392 1006 m 261
 298 808 l 261
 363 808 l 261
 484 1006 l 261
 392 1006 l 261
307 0 m 257
 398 0 l 257
 398 390 l 257
 307 390 l 257
 307 0 l 257
350 393 m 257
 366 370 l 257
 376 355 386 339 398 324 c 257
 418 354 438 389 458 419 c 256
 526 527 593 631 662 740 c 257
 561 740 l 257
 350 393 l 257
144 740 m 257
 43 740 l 257
 247 419 l 257
 267 387 286 356 307 324 c 257
 330 358 l 257
 355 393 l 257
 144 740 l 257
EndSplineSet
Validated: 5
EndChar

StartChar: degree
Encoding: 176 176 163
GlifName: degree
Width: 135
VWidth: 0
Flags: W
HStem: 596 16.5<49.0574 92.2588> 701.25 16.5<49.0574 92.2588>
VStem: 12.5 22.75<623.037 690.774> 105.75 23<622.389 691.325>
LayerCount: 2
Fore
SplineSet
12.5 654.25 m 257
 12.5 686 31.5 717.75 70.75 717.75 c 256
 109.5 717.75 128.75 688.5 128.75 656.75 c 256
 128.75 625.25 109.5 596 70.75 596 c 256
 31.5 596 12.5 625.25 12.5 654.25 c 257
35.25 656.75 m 257
 35.25 635.75 44.75 612.5 70.75 612.5 c 256
 96.75 612.5 105.75 635.75 105.75 656.75 c 256
 105.75 678 96.75 701.25 70.75 701.25 c 256
 44.75 701.25 35.25 678 35.25 656.75 c 257
EndSplineSet
Validated: 524289
EndChar

StartChar: plus
Encoding: 43 43 164
GlifName: plus
Width: 425
VWidth: 0
Flags: W
HStem: 110 315
VStem: 55 315
LayerCount: 2
Fore
SplineSet
55 230 m 257
 370 230 l 257
 370 313 l 257
 55 313 l 257
 55 230 l 257
251 425 m 257
 168 425 l 257
 168 110 l 257
 251 110 l 257
 251 425 l 257
EndSplineSet
Validated: 5
EndChar

StartChar: asterisk
Encoding: 42 42 165
GlifName: asterisk
Width: 139
VWidth: 0
Flags: W
HStem: 598 115<55 84>
VStem: 55 29<598 713>
LayerCount: 2
Fore
SplineSet
13.013671875 637.948242188 m 257
 113.06640625 694.645507812 l 257
 127.36328125 669.4140625 l 257
 27.310546875 612.717773438 l 257
 13.013671875 637.948242188 l 257
13.013671875 670.051757812 m 257
 27.310546875 695.282226562 l 257
 127.36328125 638.5859375 l 257
 113.06640625 613.354492188 l 257
 13.013671875 670.051757812 l 257
55 598 m 257
 55 713 l 257
 84 713 l 257
 84 598 l 257
 55 598 l 257
EndSplineSet
Validated: 524293
EndChar

StartChar: exclamdown
Encoding: 161 161 166
GlifName: exclamdown
Width: 319
VWidth: 0
Flags: W
HStem: 356 152<119.507 225.558>
VStem: 97 152<379.442 485.493> 122 92<6 154.615> 135 66<133.385 282>
LayerCount: 2
Fore
SplineSet
122 6 m 257xa0
 122 -238 l 257
 214 -238 l 257
 214 6 l 257xa0
 201 282 l 257
 135 282 l 257x90
 122 6 l 257xa0
97 434 m 256xc0
 97 476 129 508 171 508 c 256
 216 508 249 476 249 434 c 256
 249 389 216 356 171 356 c 256
 129 356 97 389 97 434 c 256xc0
EndSplineSet
Validated: 9
EndChar

StartChar: numbersign
Encoding: 35 35 167
GlifName: numbersign
Width: 819
VWidth: 0
Flags: W
LayerCount: 2
Fore
SplineSet
780 527 m 257
 41 527 l 257
 41 444 l 257
 780 444 l 257
 780 527 l 257
713 757 m 257
 619 757 l 257
 359 0 l 257
 453 0 l 257
 713 757 l 257
41 230 m 257
 780 230 l 257
 780 313 l 257
 41 313 l 257
 41 230 l 257
359 0 m 257
 453 0 l 257
 713 757 l 257
 619 757 l 257
 359 0 l 257
108 0 m 257
 202 0 l 257
 462 757 l 257
 368 757 l 257
 108 0 l 257
EndSplineSet
Validated: 5
EndChar
